<svg width="140" height="64" viewBox="0 0 140 64" fill="none" xmlns="http://www.w3.org/2000/svg">
<rect y="18" width="140" height="40" rx="12" fill="#E8F5E9"/>
<g style="mix-blend-mode:overlay">
<mask id="mask0" mask-type="alpha" maskUnits="userSpaceOnUse" x="0" y="18" width="140" height="40">
<rect y="18" width="140" height="40" rx="12" fill="#DFF2E4"/>
</mask>
<g mask="url(#mask0)">
<mask id="mask1" mask-type="alpha" maskUnits="userSpaceOnUse" x="0" y="18" width="140" height="40">
<path d="M0 18H140V58H0V18Z" fill="#A9E3C9"/>
</mask>
<g mask="url(#mask1)">
<path fill-rule="evenodd" clip-rule="evenodd" d="M182.435 94.6013C181.429 94.5213 180.672 93.6032 180.749 92.5511C180.825 91.4989 181.628 90.6724 182.647 90.7124C183.642 90.7498 184.477 91.6717 184.398 92.7651C184.32 93.8586 183.44 94.6799 182.435 94.6013ZM181.326 104.927C180.33 104.756 179.677 103.776 179.785 102.726C179.911 101.679 180.826 100.937 181.827 101.068C182.827 101.199 183.535 102.186 183.404 103.274C183.29 104.365 182.319 105.099 181.326 104.927ZM179.357 115.11C178.379 114.847 177.767 113.799 177.991 112.77C178.215 111.742 179.199 111.09 180.185 111.313C181.17 111.536 181.783 112.583 181.55 113.652C181.317 114.721 180.334 115.373 179.357 115.11ZM176.532 125.063C175.581 124.71 175.066 123.611 175.385 122.612C175.704 121.613 176.75 121.058 177.71 121.372C178.676 121.686 179.189 122.782 178.858 123.821C178.526 124.861 177.483 125.416 176.532 125.063ZM172.907 134.72C171.988 134.279 171.574 133.141 171.985 132.18C172.405 131.223 173.421 130.735 174.367 131.144C175.289 131.54 175.779 132.712 175.344 133.708C174.917 134.707 173.825 135.159 172.907 134.72ZM168.507 144.008C167.618 143.479 167.337 142.328 167.792 141.39C168.246 140.45 169.345 140.085 170.242 140.573C171.138 141.06 171.484 142.247 171.011 143.223C170.538 144.197 169.375 144.526 168.507 144.008ZM163.364 152.86C162.54 152.264 162.305 151.057 162.84 150.166C163.378 149.278 164.508 149.02 165.362 149.588C166.216 150.157 166.457 151.367 165.896 152.29C165.341 153.216 164.205 153.47 163.364 152.86ZM157.492 161.19C156.713 160.513 156.578 159.289 157.194 158.459C157.81 157.63 158.962 157.481 159.767 158.126C160.569 158.771 160.705 159.993 160.064 160.856C159.425 161.718 158.272 161.867 157.492 161.19ZM150.955 168.944C150.234 168.198 150.205 166.971 150.893 166.207C151.581 165.443 152.747 165.407 153.495 166.124C154.242 166.84 154.27 168.065 153.557 168.859C152.842 169.652 151.676 169.689 150.955 168.944ZM143.814 176.075C143.157 175.265 143.234 174.047 143.986 173.356C144.752 172.679 145.875 172.702 146.566 173.49C147.248 174.266 147.218 175.537 146.424 176.241C145.641 176.96 144.472 176.885 143.814 176.075ZM136.127 182.531C135.536 181.664 135.72 180.466 136.527 179.849C137.311 179.197 138.45 179.353 139.07 180.195C139.69 181.037 139.534 182.27 138.719 182.948C137.88 183.59 136.714 183.396 136.127 182.531ZM127.94 188.264C127.425 187.346 127.712 186.184 128.543 185.6C129.382 185.03 130.508 185.297 131.056 186.193C131.604 187.088 131.344 188.296 130.472 188.888C129.608 189.494 128.455 189.181 127.94 188.264ZM119.31 193.214C118.873 192.253 119.236 191.079 120.122 190.598C121.01 190.117 122.113 190.495 122.585 191.439C123.058 192.381 122.695 193.554 121.772 194.053C120.85 194.553 119.747 194.176 119.31 193.214ZM110.292 197.32C109.935 196.32 110.398 195.193 111.325 194.807C112.253 194.42 113.323 194.907 113.715 195.89C114.108 196.874 113.647 197.999 112.682 198.401C111.719 198.804 110.648 198.318 110.292 197.32ZM100.973 200.582C100.701 199.553 101.257 198.483 102.216 198.195C103.179 197.925 104.19 198.456 104.5 199.475C104.809 200.487 104.272 201.619 103.271 201.901C102.273 202.202 101.244 201.608 100.973 200.582ZM91.4256 202.979C91.2393 201.922 91.8884 200.942 92.8625 200.724C93.8342 200.487 94.8035 201.14 95.0276 202.182C95.2516 203.222 94.6148 204.269 93.6065 204.515C92.5922 204.74 91.6107 204.021 91.4256 202.979ZM81.7138 204.505C81.6152 203.445 82.3372 202.47 83.326 202.337C84.3148 202.205 85.2268 202.958 85.3644 204.015C85.502 205.072 84.7812 206.044 83.7534 206.182C82.7257 206.319 81.8124 205.57 81.7138 204.505ZM71.9168 205.072C71.9046 204.004 72.7034 203.113 73.7007 203.088C74.6968 203.06 75.5456 203.906 75.5955 204.973C75.6454 206.039 74.8478 206.929 73.8128 206.956C72.7777 206.984 71.929 206.138 71.9168 205.072ZM62.1057 204.771C62.1812 203.706 63.0482 202.906 64.0419 202.986C65.0355 203.068 65.816 203.917 65.7783 204.997C65.743 206.051 64.8723 206.935 63.8397 206.851C62.8071 206.769 62.0314 205.835 62.1057 204.771ZM52.3523 203.599C52.5142 202.546 53.4397 201.855 54.4309 201.97C55.4197 202.102 56.1211 203.072 55.9969 204.132C55.8739 205.19 54.9412 205.94 53.9134 205.802C52.8832 205.68 52.1903 204.653 52.3523 203.599ZM42.7383 201.514C42.9867 200.479 43.9767 199.829 44.9484 200.066C45.9189 200.304 46.5351 201.346 46.3244 202.39C46.1138 203.433 45.125 204.083 44.1155 203.835C43.106 203.589 42.4899 202.547 42.7383 201.514ZM33.3384 198.523C33.672 197.515 34.7095 196.969 35.6532 197.308C36.5969 197.646 37.1204 198.753 36.8245 199.77C36.5274 200.794 35.4925 201.337 34.511 200.986C33.5296 200.634 33.0048 199.53 33.3384 198.523ZM24.2194 194.683C24.6359 193.711 25.7111 193.272 26.6182 193.707C27.5217 194.152 27.9821 195.228 27.5961 196.23C27.2222 197.205 26.1154 197.726 25.1765 197.264C24.2316 196.813 23.8042 195.655 24.2194 194.683ZM15.4469 190.023C15.9461 189.083 17.0336 188.785 17.92 189.267C18.8065 189.748 19.1511 190.91 18.6908 191.861C18.2305 192.809 17.1103 193.177 16.1885 192.677C15.2679 192.175 14.9574 190.944 15.4469 190.023ZM7.08463 184.576C7.64721 183.706 8.78696 183.457 9.62839 184.023C10.4674 184.592 10.7109 185.79 10.1739 186.693C9.63813 187.596 8.49474 187.851 7.62287 187.259C6.74856 186.672 6.50866 185.469 7.08463 184.576ZM-0.77964 178.36C-0.14035 177.533 1.0153 177.392 1.7995 178.043C2.58248 178.695 2.72251 179.916 2.11366 180.767C1.50481 181.618 0.350426 181.76 -0.464214 181.083C-1.27885 180.405 -1.41893 179.185 -0.77964 178.36ZM-8.1034 171.44C-7.39835 170.675 -6.24033 170.645 -5.51823 171.374C-4.79735 172.102 -4.76325 173.336 -5.43908 174.128C-6.11612 174.92 -7.2729 174.951 -8.02179 174.194C-8.7719 173.437 -8.80723 172.203 -8.1034 171.44ZM-14.8373 163.881C-14.0726 163.184 -12.9218 163.264 -12.2692 164.063C-11.6299 164.874 -11.6518 166.062 -12.3958 166.794C-13.1289 167.516 -14.3295 167.485 -14.9943 166.643C-15.6726 165.815 -15.602 164.576 -14.8373 163.881ZM-20.9322 155.737C-20.1128 155.113 -18.9816 155.306 -18.3995 156.162C-17.7834 156.991 -17.9307 158.198 -18.7259 158.854C-19.521 159.511 -20.6851 159.344 -21.3256 158.483C-21.932 157.593 -21.7493 156.359 -20.9322 155.737ZM-26.3473 147.068C-25.4803 146.522 -24.3831 146.828 -23.8303 147.707C-23.2933 148.596 -23.5453 149.787 -24.3916 150.369C-25.2367 150.949 -26.3777 150.673 -26.9366 149.75C-27.5089 148.834 -27.2131 147.613 -26.3473 147.068ZM-31.0237 137.928C-30.1153 137.465 -29.0072 137.851 -28.553 138.789C-28.0988 139.728 -28.4555 140.896 -29.3469 141.396C-30.237 141.897 -31.3439 141.513 -31.8151 140.536C-32.2876 139.56 -31.9321 138.392 -31.0237 137.928ZM-34.9037 128.38C-33.9601 128.003 -32.8958 128.492 -32.5305 129.474C-32.1652 130.456 -32.6256 131.589 -33.5534 132.005C-34.4825 132.421 -35.5455 131.932 -35.9254 130.912C-36.3053 129.891 -35.8462 128.757 -34.9037 128.38ZM-37.978 118.514C-37.0075 118.225 -35.9968 118.815 -35.7252 119.829C-35.4695 120.851 -35.97 121.921 -36.9332 122.25C-37.8891 122.576 -38.9582 122.007 -39.2249 120.946C-39.5086 119.891 -38.9485 118.802 -37.978 118.514ZM-40.2441 108.402C-39.2456 108.204 -38.3201 108.891 -38.1143 109.924C-37.8903 110.952 -38.5077 111.978 -39.4916 112.215C-40.473 112.452 -41.4606 111.779 -41.6932 110.71C-41.9075 109.638 -41.2268 108.597 -40.2441 108.402ZM-41.6851 98.1204C-40.6842 98.0173 -39.7636 98.7806 -39.6382 99.8276C-39.5128 100.875 -40.2239 101.842 -41.2224 101.987C-42.2208 102.132 -43.139 101.368 -43.2693 100.28C-43.3984 99.1919 -42.6909 98.2262 -41.6851 98.1204ZM-42.2206 87.7431C-41.2123 87.7302 -40.3709 88.576 -40.3454 89.6308C-40.321 90.6868 -41.1198 91.5855 -42.1269 91.6384C-43.1339 91.6912 -43.9741 90.8466 -43.9997 89.7507C-44.0264 88.6534 -43.2276 87.7547 -42.2206 87.7431ZM-41.9372 77.3554C-40.9314 77.434 -40.1752 78.3534 -40.2507 79.4055C-40.3286 80.4576 -41.1298 81.2829 -42.1491 81.2442C-43.1451 81.2068 -43.9805 80.2849 -43.9014 79.1914C-43.8234 78.098 -42.9418 77.2754 -41.9372 77.3554ZM-40.8293 67.028C-39.8332 67.2008 -39.1817 68.1807 -39.2901 69.2303C-39.4155 70.2773 -40.3312 71.0187 -41.3322 70.8885C-42.3319 70.757 -43.0394 69.7693 -42.9079 68.681C-42.7947 67.5914 -41.8242 66.8565 -40.8293 67.028ZM-38.8595 56.8466C-37.883 57.1097 -37.2692 58.1579 -37.4933 59.1856C-37.7173 60.2145 -38.7012 60.8657 -39.6876 60.6426C-40.6727 60.4208 -41.2865 59.3725 -41.0527 58.3049C-40.8201 57.236 -39.8361 56.5836 -38.8595 56.8466ZM-36.0348 46.8933C-35.0825 47.2466 -34.5674 48.3439 -34.8877 49.3445C-35.2055 50.3438 -36.2515 50.8969 -37.2123 50.5849C-38.1791 50.2703 -38.6906 49.1743 -38.3606 48.135C-38.0281 47.0958 -36.9858 46.54 -36.0348 46.8933ZM-32.4129 37.2368C-31.4948 37.6765 -31.0808 38.815 -31.4912 39.7769C-31.9113 40.7337 -32.928 41.2197 -33.8742 40.8123C-34.7947 40.4165 -35.2867 39.2444 -34.8508 38.249C-34.4246 37.2497 -33.3311 36.7971 -32.4129 37.2368ZM-28.009 27.9479C-27.1213 28.4778 -26.8388 29.628 -27.2955 30.5666C-27.7485 31.5066 -28.8469 31.8715 -29.7443 31.3841C-30.6405 30.8967 -30.9876 29.7092 -30.5151 28.7331C-30.0402 27.7583 -28.8785 27.4308 -28.009 27.9479ZM-22.8655 19.0944C-22.0435 19.6902 -21.8086 20.897 -22.3431 21.788C-22.8801 22.6777 -24.0114 22.9343 -24.865 22.367C-25.7173 21.7983 -25.9585 20.5889 -25.3996 19.6656C-24.8431 18.7399 -23.7081 18.4858 -22.8655 19.0944ZM-16.9976 10.7652C-16.2171 11.4421 -16.082 12.667 -16.6981 13.4961C-17.3143 14.3264 -18.4674 14.4747 -19.2711 13.8287C-20.0748 13.1853 -20.2087 11.9617 -19.5694 11.1004C-18.9289 10.2378 -17.777 10.0882 -16.9976 10.7652ZM-10.4609 3.01195C-9.73884 3.75723 -9.71088 4.98472 -10.3989 5.74805C-11.0857 6.51267 -12.2522 6.54878 -12.9999 5.83187C-13.7476 5.11624 -13.7768 3.8913 -13.062 3.09702C-12.3472 2.30275 -11.1818 2.26667 -10.4609 3.01195ZM-3.32139 -4.11964C-2.66384 -3.3099 -2.74051 -2.09015 -3.49426 -1.40033C-4.26019 -0.723389 -5.38296 -0.745304 -6.07339 -1.53313C-6.7553 -2.30935 -6.72607 -3.58067 -5.93091 -4.28597C-5.14794 -5.00417 -3.97895 -4.9281 -3.32139 -4.11964ZM4.3697 -10.5745C4.95906 -9.70674 4.77638 -8.51015 3.96784 -7.89252C3.18487 -7.24009 2.04518 -7.39612 1.42538 -8.23939C0.805573 -9.08008 0.962658 -10.314 1.77729 -10.991C2.61627 -11.6331 3.78278 -11.4397 4.3697 -10.5745ZM12.5569 -16.3074C13.072 -15.3906 12.7834 -14.2276 11.9529 -13.6435C11.1139 -13.0736 9.98885 -13.3405 9.43969 -14.2366C8.89174 -15.1327 9.15226 -16.3409 10.0253 -16.9314C10.8887 -17.5375 12.0418 -17.2254 12.5569 -16.3074ZM21.1875 -21.2589C21.6247 -20.297 21.2618 -19.1236 20.3741 -18.6427C19.4876 -18.1605 18.3844 -18.5383 17.9119 -19.4821C17.4395 -20.4246 17.8023 -21.5967 18.7241 -22.097C19.6459 -22.596 20.7492 -22.2195 21.1875 -21.2589ZM30.2056 -25.3631C30.5612 -24.3651 30.0997 -23.2381 29.1718 -22.8513C28.2451 -22.4645 27.1748 -22.9506 26.7815 -23.9344C26.3894 -24.9169 26.8509 -26.0426 27.8141 -26.4448C28.7785 -26.8471 29.8488 -26.3623 30.2056 -25.3631ZM39.5223 -28.6254C39.7939 -27.5964 39.2374 -26.5262 38.2791 -26.2387C37.3146 -25.9692 36.3052 -26.4991 35.9947 -27.5191C35.6854 -28.5312 36.2224 -29.6634 37.2246 -29.9457C38.2206 -30.2449 39.2496 -29.653 39.5223 -28.6254ZM49.0711 -31.0227C49.2586 -29.9667 48.6096 -28.9855 47.6342 -28.7676C46.6637 -28.5303 45.6945 -29.1853 45.4704 -30.2259C45.2464 -31.2664 45.882 -32.3121 46.8914 -32.5584C47.9046 -32.784 48.8872 -32.0646 49.0711 -31.0227ZM58.78 -32.5475C58.8774 -31.4889 58.1565 -30.5128 57.1678 -30.3813C56.179 -30.2472 55.2657 -31.0002 55.1293 -32.0588C54.9917 -33.1148 55.7126 -34.087 56.7403 -34.225C57.7681 -34.3617 58.6814 -33.6138 58.78 -32.5475ZM68.5835 -33.1152C68.5944 -32.0476 67.7957 -31.1579 66.7996 -31.1308C65.8023 -31.1038 64.9536 -31.9509 64.9036 -33.0173C64.8537 -34.0823 65.6525 -34.972 66.6875 -35.0003C67.7226 -35.0274 68.5713 -34.1829 68.5835 -33.1152ZM78.3903 -32.8162C78.316 -31.7511 77.4491 -30.9491 76.4542 -31.0303C75.4606 -31.1116 74.6812 -31.9613 74.7177 -33.0405C74.7543 -34.094 75.6237 -34.9785 76.6564 -34.8947C77.689 -34.8122 78.4658 -33.8799 78.3903 -32.8162ZM88.1448 -31.643C87.9817 -30.5883 87.0562 -29.8972 86.065 -30.0119C85.0762 -30.1447 84.3761 -31.1144 84.4991 -32.1743C84.6233 -33.2329 85.556 -33.982 86.5838 -33.8441C87.6127 -33.7229 88.3068 -32.6952 88.1448 -31.643ZM97.7588 -29.5577C97.5104 -28.5223 96.5204 -27.8737 95.5499 -28.111C94.5781 -28.3482 93.9632 -29.3901 94.1739 -30.4345C94.3833 -31.4776 95.3733 -32.1262 96.3816 -31.8799C97.3911 -31.6323 98.0084 -30.5918 97.7588 -29.5577ZM107.158 -26.5664C106.824 -25.5593 105.788 -25.0139 104.843 -25.3517C103.899 -25.6895 103.377 -26.7971 103.672 -27.8145C103.969 -28.837 105.004 -29.3798 105.985 -29.0291C106.967 -28.6771 107.492 -27.5734 107.158 -26.5664ZM116.278 -22.7276C115.863 -21.7541 114.787 -21.3157 113.879 -21.7515C112.975 -22.1963 112.516 -23.2717 112.901 -24.2736C113.276 -25.2497 114.382 -25.7693 115.322 -25.3077C116.266 -24.8564 116.693 -23.6998 116.278 -22.7276ZM125.051 -18.0677C124.551 -17.1264 123.465 -16.8286 122.578 -17.3108C121.69 -17.7918 121.347 -18.9548 121.806 -19.9051C122.266 -20.8541 123.388 -21.2203 124.31 -20.72C125.23 -20.2184 125.54 -18.987 125.051 -18.0677ZM133.41 -12.621C132.847 -11.7493 131.707 -11.5005 130.866 -12.0665C130.026 -12.6364 129.783 -13.833 130.32 -14.7368C130.856 -15.6407 131.998 -15.8947 132.87 -15.3029C133.744 -14.7149 133.985 -13.5119 133.41 -12.621ZM141.276 -6.40318C140.637 -5.57796 139.48 -5.43484 138.697 -6.08728C137.913 -6.73843 137.774 -7.95951 138.383 -8.81052C138.99 -9.66153 140.146 -9.80465 140.959 -9.12642C141.774 -8.44947 141.915 -7.2284 141.276 -6.40318ZM148.599 0.517178C147.895 1.2805 146.736 1.31148 146.015 0.58297C145.294 -0.145546 145.26 -1.38083 145.936 -2.17252C146.612 -2.96292 147.769 -2.99386 148.519 -2.23827C149.269 -1.48139 149.304 -0.246151 148.599 0.517178ZM155.334 8.07583C154.57 8.77211 153.418 8.69217 152.766 7.89404C152.127 7.083 152.148 5.89419 152.892 5.16182C153.625 4.44104 154.825 4.47199 155.491 5.31268C156.17 6.14176 156.098 7.37955 155.334 8.07583ZM161.428 16.2186C160.609 16.8439 159.479 16.6493 158.896 15.7944C158.279 14.964 158.427 13.7584 159.223 13.1021C160.017 12.4458 161.182 12.6109 161.822 13.4735C162.428 14.3619 162.246 15.5971 161.428 16.2186ZM166.844 24.8877C165.978 25.4331 164.88 25.1288 164.328 24.2495C163.79 23.3611 164.042 22.1684 164.888 21.5881C165.735 21.0079 166.876 21.2838 167.433 22.2071C168.007 23.1212 167.711 24.3423 166.844 24.8877ZM171.518 34.0273C170.61 34.4915 169.502 34.106 169.048 33.1673C168.593 32.2273 168.95 31.0591 169.84 30.5588C170.73 30.0598 171.837 30.4441 172.31 31.4201C172.781 32.3962 172.426 33.5644 171.518 34.0273ZM175.395 43.5756C174.452 43.9534 173.388 43.4634 173.023 42.4822C172.657 41.5009 173.117 40.3662 174.046 39.9511C174.973 39.5346 176.036 40.0246 176.416 41.0445C176.796 42.0644 176.339 43.1991 175.395 43.5756ZM178.478 53.4424C177.506 53.7299 176.496 53.1419 176.224 52.1259C175.97 51.1059 176.47 50.0357 177.433 49.7069C178.389 49.3807 179.458 49.9493 179.725 51.0092C180.008 52.0653 179.449 53.1548 178.478 53.4424ZM180.741 63.554C179.744 63.7526 178.818 63.064 178.611 62.0325C178.387 61.0035 179.006 59.9785 179.989 59.7399C180.971 59.504 181.959 60.177 182.192 61.2459C182.406 62.3187 181.725 63.3593 180.741 63.554ZM182.18 73.8349C181.18 73.9393 180.259 73.1747 180.134 72.1277C180.008 71.082 180.719 70.1149 181.719 69.9692C182.716 69.8235 183.634 70.5882 183.764 71.6751C183.895 72.7634 183.187 73.7304 182.18 73.8349ZM182.718 84.2136C181.709 84.2265 180.869 83.3806 180.844 82.3246C180.818 81.2699 181.618 80.3711 182.625 80.3183C183.631 80.2654 184.471 81.11 184.498 82.206C184.523 83.302 183.726 84.2007 182.718 84.2136ZM172.44 94.5494C171.434 94.463 170.678 93.545 170.753 92.5006C170.846 91.4575 171.664 90.6425 172.675 90.6838C173.678 90.7263 174.498 91.6457 174.402 92.7339C174.324 93.8235 173.445 94.6358 172.44 94.5494ZM171.224 104.8C170.231 104.613 169.565 103.624 169.739 102.594C169.899 101.561 170.787 100.831 171.795 100.974C172.785 101.116 173.518 102.114 173.351 103.192C173.17 104.267 172.216 104.988 171.224 104.8ZM169.086 114.88C168.113 114.593 167.548 113.545 167.81 112.535C168.032 111.515 169.011 110.886 169.994 111.128C170.974 111.372 171.584 112.432 171.351 113.496C171.08 114.549 170.054 115.167 169.086 114.88ZM166.05 124.699C165.101 124.311 164.659 123.219 164.982 122.23C165.299 121.239 166.333 120.713 167.289 121.054C168.243 121.396 168.751 122.511 168.421 123.547C168.081 124.578 166.982 125.08 166.05 124.699ZM162.139 134.165C161.223 133.68 160.897 132.557 161.291 131.597C161.698 130.641 162.777 130.224 163.698 130.661C164.617 131.098 165.02 132.26 164.595 133.255C164.182 134.256 163.027 134.636 162.139 134.165ZM157.39 143.191C156.526 142.619 156.298 141.465 156.774 140.547C157.267 139.639 158.38 139.332 159.257 139.86C160.133 140.388 160.428 141.584 159.913 142.531C159.415 143.488 158.235 143.751 157.39 143.191ZM151.856 151.701C151.051 151.047 150.919 149.868 151.477 149.003C152.05 148.15 153.186 147.957 154.011 148.57C154.836 149.184 155.022 150.403 154.424 151.293C153.84 152.194 152.65 152.345 151.856 151.701ZM145.581 159.615C144.84 158.887 144.808 157.694 145.442 156.891C146.09 156.098 147.238 156.022 148.005 156.714C148.771 157.408 148.847 158.641 148.172 159.466C147.508 160.303 146.316 160.34 145.581 159.615ZM138.631 166.867C137.962 166.07 138.031 164.874 138.736 164.139C139.452 163.415 140.603 163.454 141.304 164.221C142.005 164.987 141.97 166.222 141.223 166.975C140.487 167.741 139.302 167.664 138.631 166.867ZM131.063 173.39C130.47 172.533 130.64 171.343 131.408 170.682C132.185 170.035 133.329 170.189 133.958 171.023C134.588 171.856 134.442 173.081 133.631 173.755C132.828 174.442 131.66 174.254 131.063 173.39ZM122.946 179.126C122.435 178.217 122.706 177.04 123.532 176.462C124.364 175.896 125.488 176.165 126.04 177.059C126.592 177.951 126.338 179.155 125.469 179.745C124.607 180.347 123.468 180.05 122.946 179.126ZM114.352 184.019C113.926 183.065 114.295 181.906 115.172 181.421C116.052 180.944 117.147 181.326 117.617 182.271C118.086 183.215 117.724 184.387 116.805 184.884C115.89 185.39 114.788 184.994 114.352 184.019ZM105.356 188.023C105.019 187.033 105.483 185.894 106.405 185.512C107.324 185.128 108.381 185.621 108.762 186.61C109.144 187.596 108.677 188.724 107.717 189.125C106.757 189.524 105.703 189.04 105.356 188.023ZM96.0375 191.09C95.7878 190.056 96.3565 188.982 97.3075 188.696C98.2585 188.41 99.2655 189.009 99.5566 190.032C99.8476 191.054 99.2802 192.127 98.2877 192.425C97.2953 192.724 96.2871 192.125 96.0375 191.09ZM86.4811 193.19C86.3264 192.135 86.9889 191.127 87.9631 190.942C88.936 190.759 89.8858 191.462 90.0831 192.509C90.2803 193.555 89.6179 194.562 88.6023 194.754C87.5868 194.946 86.6357 194.245 86.4811 193.19ZM76.781 194.315C76.7201 193.249 77.4714 192.318 78.4577 192.238C79.444 192.16 80.3269 192.959 80.4292 194.022C80.5303 195.083 79.7801 196.014 78.7524 196.097C77.7234 196.18 76.8407 195.381 76.781 194.315ZM67.0237 194.472C67.0578 193.404 67.8883 192.558 68.8771 192.584C69.867 192.621 70.6744 193.49 70.6817 194.546C70.689 195.626 69.8597 196.493 68.8283 196.455C67.7969 196.428 66.9896 195.538 67.0237 194.472ZM57.2973 193.666C57.4276 192.607 58.3286 191.853 59.3089 191.984C60.2891 192.133 61.0222 193.012 60.9333 194.091C60.848 195.139 59.9384 195.987 58.9168 195.833C57.8939 195.696 57.1682 194.724 57.2973 193.666ZM47.6873 191.889C47.9114 190.847 48.8746 190.192 49.8391 190.428C50.8096 190.624 51.4525 191.618 51.2698 192.671C51.0872 193.717 50.1155 194.424 49.1011 194.219C48.0965 193.974 47.4633 192.929 47.6873 191.889ZM38.2817 189.147C38.6008 188.127 39.6126 187.595 40.5576 187.904C41.5086 188.189 42.0542 189.257 41.7777 190.283C41.5013 191.31 40.4736 191.903 39.4811 191.604C38.4948 191.281 37.9663 190.154 38.2817 189.147ZM29.1664 185.465C29.578 184.476 30.6252 184.07 31.547 184.45C32.4676 184.833 32.9133 185.953 32.5456 186.948C32.1778 187.94 31.1001 188.424 30.1406 188.023C29.1798 187.626 28.7634 186.429 29.1664 185.465ZM20.4226 180.876C20.9231 179.93 21.9972 179.64 22.8873 180.099C23.7677 180.576 24.1099 181.738 23.6532 182.691C23.1978 183.643 22.0836 184.013 21.1655 183.514C20.2376 183.034 19.9355 181.792 20.4226 180.876ZM12.1356 175.424C12.7153 174.539 13.8172 174.347 14.6611 174.897C15.4928 175.461 15.729 176.654 15.1896 177.555C14.6502 178.457 13.508 178.712 12.6398 178.123C11.7618 177.549 11.5658 176.293 12.1356 175.424ZM4.36863 169.165C5.02251 168.345 6.14273 168.257 6.93177 168.89C7.70986 169.538 7.83774 170.748 7.21917 171.592C6.60182 172.435 5.44261 172.574 4.63165 171.898C3.80973 171.238 3.72084 169.976 4.36863 169.165ZM-2.79779 162.156C-2.07691 161.408 -0.948162 161.427 -0.219975 162.137C0.496037 162.86 0.514317 164.078 -0.176125 164.857C-0.866562 165.634 -2.03313 165.656 -2.77958 164.902C-3.53699 164.161 -3.51746 162.901 -2.79779 162.156ZM-9.31233 154.46C-8.52935 153.79 -7.40174 153.917 -6.74175 154.697C-6.09394 155.489 -6.18531 156.705 -6.94272 157.41C-7.69891 158.116 -8.86181 158.02 -9.53641 157.195C-10.2232 156.379 -10.0977 155.132 -9.31233 154.46ZM-15.1059 146.146C-14.2705 145.56 -13.1515 145.795 -12.567 146.639C-11.9934 147.493 -12.1931 148.695 -13.009 149.321C-13.826 149.947 -14.9731 149.735 -15.571 148.844C-16.181 147.962 -15.9509 146.739 -15.1059 146.146ZM-20.1288 137.289C-19.2484 136.791 -18.1452 137.131 -17.6423 138.033C-17.1491 138.94 -17.456 140.118 -18.3254 140.659C-19.1936 141.199 -20.3176 140.873 -20.8314 139.925C-21.355 138.984 -21.0275 137.795 -20.1288 137.289ZM-24.3364 127.965C-23.417 127.56 -22.3333 128.001 -21.9229 128.954C-21.515 129.908 -21.929 131.049 -22.8423 131.5C-23.7556 131.951 -24.843 131.512 -25.2679 130.516C-25.6953 129.521 -25.2789 128.379 -24.3364 127.965ZM-27.6828 118.256C-26.7196 117.943 -25.6772 118.492 -25.3606 119.484C-25.044 120.475 -25.5603 121.57 -26.5101 121.927C-27.4599 122.283 -28.501 121.735 -28.831 120.7C-29.1622 119.664 -28.6472 118.571 -27.6828 118.256ZM-30.1217 108.25C-29.1342 108.036 -28.1503 108.689 -27.9275 109.71C-27.7046 110.73 -28.3207 111.768 -29.2986 112.026C-30.2764 112.285 -31.2603 111.633 -31.4917 110.568C-31.7242 109.504 -31.1093 108.466 -30.1217 108.25ZM-31.6494 98.0442C-30.6473 97.9307 -29.7292 98.6799 -29.605 99.7191C-29.4808 100.758 -30.1907 101.729 -31.188 101.888C-32.1853 102.047 -33.1009 101.297 -33.2312 100.213C-33.3603 99.1299 -32.6516 98.1577 -31.6494 98.0442ZM-32.2506 87.7326C-31.2424 87.7184 -30.4021 88.5566 -30.3778 89.6049C-30.351 90.6519 -31.1535 91.548 -32.1568 91.6047C-33.1663 91.6628 -34.0041 90.8259 -34.0309 89.7338C-34.0577 88.6416 -33.2589 87.7455 -32.2506 87.7326ZM-31.943 77.4054C-30.9384 77.4931 -30.1809 78.4099 -30.2564 79.4543C-30.3502 80.4974 -31.1673 81.3136 -32.178 81.271C-33.1826 81.2298 -34.0009 80.3092 -33.9059 79.2209C-33.8279 78.1326 -32.9476 77.319 -31.943 77.4054ZM-30.7255 67.1559C-29.7331 67.3441 -29.0658 68.3318 -29.2399 69.3633C-29.4006 70.3961 -30.2883 71.1259 -31.2953 70.9815C-32.2865 70.841 -33.0184 69.8417 -32.8515 68.765C-32.6713 67.6884 -31.7179 66.9689 -30.7255 67.1559ZM-28.5903 57.0748C-27.6161 57.3623 -27.0523 58.4119 -27.3141 59.4215C-27.5357 60.4414 -28.5147 61.0706 -29.4962 60.8269C-30.4776 60.5845 -31.0877 59.5246 -30.8551 58.4596C-30.5824 57.4062 -29.5583 56.7885 -28.5903 57.0748ZM-25.5539 47.257C-24.6041 47.6451 -24.1608 48.7359 -24.4859 49.7249C-24.8025 50.7177 -25.8364 51.2425 -26.7911 50.9008C-27.7458 50.5604 -28.2548 49.4438 -27.9235 48.4097C-27.585 47.3782 -26.4854 46.8766 -25.5539 47.257ZM-21.6396 37.7912C-20.7251 38.276 -20.3988 39.3991 -20.7933 40.3597C-21.2 41.3139 -22.2789 41.7317 -23.1982 41.2945C-24.1176 40.8587 -24.5218 39.697 -24.0956 38.7015C-23.6828 37.6997 -22.5285 37.3206 -21.6396 37.7912ZM-16.8948 28.7636C-16.0302 29.3361 -15.8025 30.4901 -16.2786 31.4094C-16.7717 32.3172 -17.8835 32.6228 -18.7602 32.0954C-19.6357 31.5681 -19.9316 30.3715 -19.4178 29.4251C-18.9197 28.4683 -17.7386 28.204 -16.8948 28.7636ZM-11.3578 20.2551C-10.5529 20.9088 -10.4201 22.0873 -10.979 22.9525C-11.5526 23.8061 -12.6887 23.9982 -13.5131 23.3844C-14.3387 22.772 -14.5249 21.5509 -13.9258 20.6612C-13.3426 19.7599 -12.1529 19.6091 -11.3578 20.2551ZM-5.08675 12.3406C-4.34639 13.0692 -4.31347 14.2619 -4.9491 15.0652C-5.59691 15.8568 -6.74519 15.9342 -7.51112 15.2405C-8.27826 14.5481 -8.35379 13.3154 -7.67797 12.4902C-7.01433 11.6521 -5.82344 11.616 -5.08675 12.3406ZM1.86633 5.08943C2.53606 5.88627 2.46792 7.08283 1.76287 7.81779C1.04687 8.54114 -0.10387 8.50246 -0.805264 7.73527C-1.50666 6.96808 -1.47137 5.7341 -0.724922 4.9811C0.0117874 4.2152 1.19659 4.29129 1.86633 5.08943ZM9.43476 -1.43374C10.0278 -0.57629 9.85731 0.613831 9.08894 1.274C8.31082 1.92128 7.16862 1.76658 6.53907 0.933628C5.90952 0.0993919 6.05443 -1.12557 6.86542 -1.79992C7.66789 -2.48717 8.83565 -2.29892 9.43476 -1.43374ZM17.551 -7.16922C18.0624 -6.26149 17.7921 -5.08426 16.9665 -4.50532C16.1336 -3.94056 15.0097 -4.20873 14.4581 -5.10229C13.9052 -5.99455 14.1609 -7.19885 15.0292 -7.78811C15.8901 -8.39025 17.031 -8.09501 17.551 -7.16922ZM26.1448 -12.0627C26.571 -11.1085 26.202 -9.94931 25.3241 -9.46579C24.4449 -8.98742 23.349 -9.36911 22.8802 -10.3142C22.4101 -11.2594 22.773 -12.4301 23.6912 -12.9278C24.6069 -13.4333 25.7089 -13.0387 26.1448 -12.0627ZM35.1447 -16.0664C35.482 -15.0761 35.0168 -13.9389 34.0963 -13.5572C33.1757 -13.1729 32.1199 -13.6655 31.7376 -14.6532C31.3564 -15.6409 31.8228 -16.7691 32.7836 -17.1688C33.7443 -17.5673 34.7977 -17.0838 35.1447 -16.0664ZM44.461 -19.1351C44.7106 -18.0997 44.1419 -17.0256 43.1909 -16.7394C42.2399 -16.4531 41.2316 -17.054 40.9406 -18.0765C40.6496 -19.0977 41.2183 -20.1705 42.2107 -20.4696C43.2031 -20.7675 44.2113 -20.1679 44.461 -19.1351ZM54.0135 -21.2346C54.1694 -20.1786 53.5057 -19.1716 52.5328 -18.9872C51.5587 -18.8028 50.6101 -19.5056 50.4129 -20.5526C50.2156 -21.5996 50.878 -22.6065 51.8936 -22.7987C52.9091 -22.9908 53.8589 -22.2881 54.0135 -21.2346ZM63.7148 -22.3589C63.7744 -21.2939 63.0231 -20.3616 62.0368 -20.2817C61.0505 -20.203 60.1689 -21.0038 60.0666 -22.065C59.9644 -23.1274 60.7145 -24.0583 61.7434 -24.1409C62.7723 -24.2234 63.6551 -23.424 63.7148 -22.3589ZM73.4727 -22.5148C73.4374 -21.4484 72.6069 -20.6013 71.6181 -20.6284C70.6294 -20.6658 69.822 -21.5335 69.8147 -22.5895C69.8074 -23.6688 70.6367 -24.5365 71.6669 -24.4991C72.6983 -24.4708 73.5068 -23.5811 73.4727 -22.5148ZM83.1991 -21.709C83.07 -20.6504 82.1689 -19.8961 81.1874 -20.0289C80.2084 -20.1772 79.4753 -21.0553 79.563 -22.1358C79.6494 -23.1828 80.5579 -24.0299 81.5807 -23.8765C82.6036 -23.7398 83.3281 -22.7676 83.1991 -21.709ZM92.8095 -19.9322C92.5854 -18.8917 91.621 -18.2354 90.6578 -18.4713C89.6861 -18.6673 89.0444 -19.6614 89.2271 -20.7149C89.4085 -21.7619 90.3815 -22.4672 91.3946 -22.2635C92.4004 -22.0185 93.0336 -20.9728 92.8095 -19.9322ZM102.216 -17.192C101.897 -16.1721 100.885 -15.6396 99.9398 -15.9477C98.9888 -16.234 98.442 -17.3003 98.7184 -18.328C98.9948 -19.3543 100.024 -19.9462 101.016 -19.647C102.001 -19.3247 102.531 -18.1977 102.216 -17.192ZM111.332 -13.5082C110.92 -12.5205 109.873 -12.1131 108.951 -12.4935C108.031 -12.8764 107.585 -13.9969 107.953 -14.991C108.321 -15.9839 109.397 -16.4674 110.357 -16.0664C111.318 -15.6693 111.735 -14.4727 111.332 -13.5082ZM120.075 -8.91891C119.574 -7.97378 118.5 -7.68493 117.61 -8.14267C116.73 -8.61974 116.387 -9.7815 116.843 -10.7344C117.299 -11.6859 118.414 -12.056 119.332 -11.5583C120.26 -11.0786 120.56 -9.83566 120.075 -8.91891ZM128.363 -3.46717C127.783 -2.58265 126.68 -2.39182 125.837 -2.93982C125.004 -3.50586 124.769 -4.69725 125.308 -5.59983C125.847 -6.50112 126.99 -6.75641 127.858 -6.16587C128.736 -5.59209 128.932 -4.33623 128.363 -3.46717ZM136.125 2.79187C135.473 3.61064 134.351 3.69833 133.562 3.06652C132.785 2.41924 132.657 1.20848 133.275 0.363914C133.892 -0.479359 135.053 -0.617336 135.863 0.0570259C136.684 0.718491 136.773 1.98083 136.125 2.79187ZM143.295 9.80118C142.573 10.549 141.444 10.5297 140.717 9.81924C140.001 9.09718 139.983 7.87738 140.673 7.09987C141.363 6.32236 142.529 6.30043 143.275 7.05474C144.033 7.79615 144.015 9.0559 143.295 9.80118ZM149.808 17.4965C149.026 18.1657 147.899 18.0393 147.239 17.2579C146.591 16.4662 146.682 15.2516 147.438 14.545C148.195 13.841 149.357 13.9364 150.032 14.7617C150.72 15.5766 150.593 16.8234 149.808 17.4965ZM155.603 25.8097C154.767 26.3951 153.648 26.1617 153.063 25.3171C152.489 24.4635 152.689 23.2618 153.506 22.6352C154.322 22.0099 155.47 22.2213 156.068 23.1123C156.677 23.9929 156.448 25.2166 155.603 25.8097ZM160.627 34.668C159.747 35.1644 158.642 34.8253 158.139 33.9227C157.646 33.015 157.954 31.8391 158.823 31.2975C159.692 30.756 160.814 31.0835 161.328 32.0299C161.852 32.9725 161.526 34.16 160.627 34.668ZM164.835 43.992C163.916 44.3969 162.831 43.9547 162.42 43.0018C162.014 42.0477 162.427 40.9079 163.341 40.4566C164.254 40.0053 165.341 40.4449 165.766 41.4403C166.193 42.4344 165.778 43.5769 164.835 43.992ZM168.18 53.6991C167.217 54.0124 166.174 53.4644 165.858 52.4716C165.54 51.48 166.056 50.3866 167.007 50.0294C167.957 49.6723 168.997 50.2216 169.328 51.2569C169.658 52.291 169.143 53.3857 168.18 53.6991ZM170.623 63.7049C169.634 63.9203 168.65 63.2665 168.427 62.2466C168.206 61.2267 168.822 60.1887 169.8 59.9296C170.777 59.6717 171.76 60.3241 171.993 61.3878C172.224 62.4529 171.609 63.4909 170.623 63.7049ZM172.144 73.9124C171.14 74.0259 170.223 73.2755 170.099 72.2362C169.974 71.1983 170.685 70.2274 171.682 70.0688C172.678 69.9102 173.594 70.6593 173.724 71.7424C173.854 72.8268 173.144 73.7977 172.144 73.9124ZM172.745 84.224C171.737 84.2382 170.896 83.3988 170.871 82.3519C170.846 81.3049 171.648 80.4087 172.65 80.3507C173.661 80.2927 174.498 81.1308 174.526 82.2229C174.551 83.3137 173.752 84.2099 172.745 84.224ZM162.446 94.4892C161.443 94.3938 160.685 93.477 160.76 92.4417C160.84 91.4076 161.709 90.6068 162.704 90.652C163.723 90.6984 164.491 91.6152 164.408 92.6996C164.33 93.7826 163.451 94.5847 162.446 94.4892ZM161.12 104.651C160.132 104.445 159.465 103.45 159.638 102.428C159.809 101.406 160.764 100.707 161.757 100.863C162.758 101.022 163.419 102.016 163.24 103.086C163.06 104.156 162.109 104.858 161.12 104.651ZM158.792 114.611C157.827 114.296 157.261 113.23 157.529 112.232C157.796 111.234 158.808 110.643 159.784 110.91C160.76 111.177 161.326 112.242 161.046 113.288C160.766 114.334 159.754 114.926 158.792 114.611ZM155.489 124.256C154.575 123.841 154.103 122.711 154.465 121.748C154.824 120.782 155.884 120.305 156.829 120.681C157.772 121.054 158.234 122.179 157.857 123.19C157.478 124.201 156.427 124.683 155.489 124.256ZM151.228 133.47C150.344 132.947 150.044 131.804 150.475 130.872C150.922 129.949 152.017 129.589 152.919 130.066C153.82 130.543 154.174 131.717 153.706 132.684C153.253 133.66 152.103 133.99 151.228 133.47ZM146.08 142.163C145.252 141.544 145.056 140.366 145.606 139.509C146.134 138.635 147.255 138.395 148.103 138.97C148.953 139.544 149.194 140.753 148.64 141.669C148.063 142.566 146.899 142.776 146.08 142.163ZM140.111 150.244C139.353 149.541 139.257 148.331 139.898 147.547C140.546 146.769 141.647 146.622 142.445 147.296C143.224 147.952 143.381 149.213 142.704 150.029C142.032 150.852 140.87 150.946 140.111 150.244ZM133.387 157.628C132.701 156.846 132.718 155.627 133.428 154.911C134.144 154.202 135.29 154.218 136.001 154.959C136.727 155.715 136.723 156.946 135.974 157.689C135.232 158.439 134.071 158.411 133.387 157.628ZM125.978 164.239C125.373 163.386 125.505 162.17 126.276 161.529C127.047 160.888 128.193 161.039 128.835 161.863C129.475 162.686 129.344 163.9 128.536 164.572C127.729 165.244 126.582 165.093 125.978 164.239ZM117.952 169.989C117.44 169.082 117.693 167.892 118.515 167.326C119.341 166.767 120.462 167.037 121.019 167.927C121.575 168.817 121.328 170.016 120.464 170.603C119.603 171.194 118.475 170.916 117.952 169.989ZM109.398 174.805C108.968 173.822 109.368 172.732 110.232 172.24C111.104 171.767 112.189 172.154 112.655 173.1C113.12 174.047 112.758 175.219 111.844 175.714C110.939 176.227 109.815 175.759 109.398 174.805ZM100.415 178.647C100.088 177.635 100.578 176.547 101.505 176.209C102.415 175.829 103.455 176.328 103.824 177.322C104.193 178.315 103.72 179.446 102.764 179.844C101.793 180.199 100.739 179.656 100.415 178.647ZM91.0988 181.471C90.876 180.429 91.469 179.393 92.4237 179.161C93.3796 178.93 94.3525 179.499 94.6228 180.54C94.8882 181.556 94.316 182.672 93.315 182.914C92.3141 183.159 91.3217 182.512 91.0988 181.471ZM81.5572 183.244C81.4391 182.184 82.132 181.216 83.1037 181.084C84.0778 180.972 84.9911 181.66 85.1555 182.717C85.3199 183.766 84.638 184.798 83.6163 184.918C82.5984 185.055 81.6766 184.304 81.5572 183.244ZM71.8959 183.955C71.8813 182.887 72.6643 181.997 73.6445 181.972C74.6248 181.96 75.4662 182.775 75.5258 183.83C75.5867 184.906 74.8062 185.826 73.7796 185.84C72.7531 185.867 71.9093 185.022 71.8959 183.955ZM62.2096 183.608C62.2997 182.544 63.1655 181.744 64.1433 181.822C65.1199 181.907 65.8761 182.827 65.8335 183.881C65.7896 184.959 64.9238 185.773 63.901 185.684C62.8769 185.603 62.1195 184.67 62.2096 183.608ZM52.6143 182.201C52.8091 181.153 53.7492 180.449 54.7148 180.631C55.6792 180.813 56.3392 181.823 56.1919 182.876C56.0433 183.934 55.1033 184.636 54.0926 184.446C53.0819 184.254 52.4194 183.248 52.6143 182.201ZM43.2074 179.738C43.5045 178.718 44.5116 178.118 45.4541 178.401C46.3966 178.685 46.9555 179.756 46.7023 180.789C46.4502 181.823 45.4443 182.423 44.4567 182.125C43.4692 181.828 42.9102 180.758 43.2074 179.738ZM34.0988 176.24C34.4909 175.27 35.5576 174.771 36.4672 175.154C37.3793 175.535 37.8298 176.658 37.4755 177.657C37.1224 178.656 36.0605 179.146 35.1059 178.747C34.1512 178.346 33.6957 177.233 34.0988 176.24ZM25.3971 171.726C25.8915 170.791 26.9704 170.473 27.8508 170.93C28.7226 171.402 29.0624 172.563 28.6118 173.518C28.1613 174.472 27.0531 174.846 26.1399 174.351C25.2181 173.87 24.9064 172.654 25.3971 171.726ZM17.1888 166.277C17.7733 165.401 18.885 165.192 19.6948 165.776C20.5204 166.336 20.7468 167.521 20.2037 168.421C19.6619 169.32 18.5197 169.576 17.6564 168.988C16.8076 168.377 16.6104 167.144 17.1888 166.277ZM9.55712 159.957C10.2208 159.154 11.363 159.051 12.1033 159.732C12.8388 160.416 12.9777 161.583 12.3408 162.428C11.721 163.252 10.5301 163.418 9.75928 162.701C8.98238 161.989 8.89347 160.759 9.55712 159.957ZM2.58391 152.835C3.32305 152.11 4.47377 152.129 5.14959 152.879C5.81932 153.637 5.80469 154.852 5.10574 155.605C4.39095 156.374 3.22808 156.37 2.52668 155.575C1.81799 154.789 1.84477 153.561 2.58391 152.835ZM-3.66158 144.99C-2.85547 144.35 -1.7072 144.49 -1.10201 145.306C-0.496815 146.121 -0.639252 147.336 -1.41735 148.015C-2.19424 148.694 -3.34132 148.553 -3.97574 147.698C-4.61016 146.843 -4.4677 145.63 -3.66158 144.99ZM-9.09097 136.492C-8.23492 135.95 -7.11098 136.218 -6.57641 137.089C-6.04793 137.962 -6.30365 139.15 -7.14386 139.74C-7.98408 140.329 -9.11655 140.066 -9.6706 139.152C-10.2295 138.239 -9.96527 137.045 -9.09097 136.492ZM-13.6356 127.432C-12.7089 126.977 -11.6788 127.4 -11.2149 128.314C-10.768 129.237 -11.1333 130.387 -12.0271 130.88C-12.9208 131.374 -14.0277 130.991 -14.4953 130.023C-14.9799 129.063 -14.5379 127.874 -13.6356 127.432ZM-17.2662 117.92C-16.3103 117.576 -15.2825 118.094 -14.9635 119.075C-14.6043 120.04 -15.0755 121.14 -16.0144 121.53C-16.952 121.921 -18.0199 121.419 -18.3962 120.408C-18.7311 119.381 -18.2184 118.264 -17.2662 117.92ZM-19.933 108.058C-18.9491 107.822 -17.9701 108.45 -17.7509 109.461C-17.533 110.472 -18.0699 111.502 -19.0538 111.79C-20.0134 112.071 -21.0667 111.463 -21.2956 110.404C-21.527 109.345 -20.9157 108.294 -19.933 108.058ZM-21.6068 97.9541C-20.6058 97.829 -19.6901 98.5614 -19.5671 99.5903C-19.4612 100.623 -20.1102 101.589 -21.1087 101.764C-22.0987 101.938 -23.074 101.215 -23.1873 100.134C-23.3164 99.0565 -22.6077 98.0791 -21.6068 97.9541ZM-22.2779 87.7198C-21.2697 87.7056 -20.4295 88.5346 -20.4051 89.5726C-20.3942 90.6105 -21.1637 91.5015 -22.1598 91.5647C-23.1766 91.6292 -24.0449 90.8014 -24.0583 89.7144C-24.0839 88.6288 -23.2862 87.7352 -22.2779 87.7198ZM-21.9506 77.4675C-20.946 77.5629 -20.1886 78.4797 -20.2641 79.5138C-20.3444 80.5479 -21.2126 81.3499 -22.2087 81.3048C-23.2267 81.2571 -23.995 80.3403 -23.911 79.2572C-23.8331 78.1741 -22.9539 77.3721 -21.9506 77.4675ZM-20.6221 67.3052C-19.6321 67.5115 -18.9672 68.5069 -19.1389 69.5281C-19.3106 70.5493 -20.2653 71.2494 -21.2589 71.0921C-22.2587 70.9348 -22.9211 69.9407 -22.7421 68.8705C-22.5607 67.799 -21.6108 67.0988 -20.6221 67.3052ZM-18.2959 57.3459C-17.3328 57.6606 -16.7653 58.7269 -17.0331 59.7249C-17.301 60.7229 -18.3118 61.3134 -19.2884 61.0465C-20.2637 60.7796 -20.8311 59.7146 -20.5498 58.6689C-20.2698 57.6232 -19.2591 57.03 -18.2959 57.3459ZM-14.9928 47.6992C-14.0771 48.1157 -13.6058 49.2439 -13.9675 50.2084C-14.3267 51.1728 -15.3873 51.6512 -16.331 51.276C-17.2747 50.9021 -17.7374 49.7777 -17.3599 48.7655C-16.9812 47.756 -15.9304 47.2737 -14.9928 47.6992ZM-10.7295 38.4863C-9.84668 39.0085 -9.54593 40.1522 -9.97699 41.0844C-10.4239 42.0077 -11.5198 42.3674 -12.4221 41.889C-13.3232 41.4119 -13.6763 40.2398 -13.2087 39.2728C-12.7545 38.2967 -11.6062 37.9666 -10.7295 38.4863ZM-5.58586 29.7928C-4.75906 30.4117 -4.56179 31.5902 -5.1134 32.4476C-5.64187 33.3219 -6.76087 33.5617 -7.61081 32.9866C-8.45953 32.4115 -8.70185 31.2034 -8.1466 30.2879C-7.56942 29.3892 -6.40536 29.1803 -5.58586 29.7928ZM0.384289 21.7119C1.14291 22.4159 1.24036 23.6241 0.598637 24.408C-0.0491791 25.1881 -1.15117 25.3338 -1.94876 24.6608C-2.72688 24.0032 -2.884 22.7434 -2.20696 21.9259C-1.53479 21.1046 -0.373119 21.0092 0.384289 21.7119ZM7.10841 14.327C7.79397 15.1109 7.77571 16.3281 7.06701 17.0437C6.35101 17.7529 5.20393 17.7387 4.4928 16.9973C3.76706 16.2417 3.77073 15.0104 4.52082 14.2664C5.26361 13.5159 6.42285 13.5443 7.10841 14.327ZM14.5195 7.71613C15.1234 8.571 14.9907 9.78559 14.2211 10.4277C13.4503 11.0685 12.3032 10.9177 11.6627 10.0938C11.021 9.26984 11.1537 8.05655 11.9611 7.38477C12.7684 6.713 13.9143 6.86256 14.5195 7.71613ZM22.5437 1.96796C23.0551 2.87312 22.8019 4.06456 21.9799 4.62932C21.1556 5.19021 20.034 4.91943 19.4763 4.02845C18.9198 3.14006 19.1682 1.9409 20.0316 1.35423C20.8937 0.76239 22.0213 1.04088 22.5437 1.96796ZM31.0995 -2.84807C31.5294 -1.86555 31.13 -0.77599 30.2667 -0.28344C29.3948 0.18977 28.3086 -0.197048 27.8435 -1.14476C27.3771 -2.09117 27.7387 -3.26195 28.6532 -3.75707C29.5592 -4.27154 30.6818 -3.80222 31.0995 -2.84807ZM40.0832 -6.69095C40.4083 -5.67878 39.9188 -4.59181 38.9934 -4.25399C38.0814 -3.87234 37.0427 -4.37262 36.6738 -5.36544C36.3048 -6.35827 36.7785 -7.48905 37.7331 -7.88747C38.7036 -8.24205 39.7593 -7.69925 40.0832 -6.69095ZM49.397 -9.5147C49.6198 -8.47287 49.0268 -7.43746 48.0721 -7.20408C47.1174 -6.97327 46.1446 -7.54191 45.873 -8.58374C45.6076 -9.59978 46.181 -10.7164 47.182 -10.9588C48.1817 -11.2038 49.1741 -10.5552 49.397 -9.5147ZM58.9388 -11.2888C59.0569 -10.2276 58.3653 -9.25926 57.3935 -9.12903C56.4182 -9.01686 55.5061 -9.7028 55.3405 -10.7601C55.1761 -11.8097 55.8593 -12.8425 56.8797 -12.9611C57.8977 -13.0991 58.8206 -12.3474 58.9388 -11.2888ZM68.6044 -11.9994C68.6178 -10.9318 67.8348 -10.0409 66.8546 -10.0151C65.8743 -10.0035 65.0329 -10.8196 64.9732 -11.8744C64.9124 -12.9497 65.6941 -13.8703 66.7206 -13.8832C67.7459 -13.9116 68.5898 -13.0657 68.6044 -11.9994ZM78.286 -11.6513C78.1959 -10.5889 77.3301 -9.78685 76.3535 -9.86551C75.3769 -9.95061 74.6194 -10.8713 74.6621 -11.9247C74.7071 -13.0039 75.5729 -13.8163 76.5958 -13.7286C77.6199 -13.646 78.3761 -12.7151 78.286 -11.6513ZM87.8832 -10.2446C87.6896 -9.19764 86.7484 -8.49236 85.784 -8.67546C84.8195 -8.85598 84.1595 -9.86686 84.3069 -10.919C84.4554 -11.9789 85.3943 -12.679 86.4062 -12.4895C87.4169 -12.2987 88.0781 -11.2916 87.8832 -10.2446ZM97.2879 -7.78299C96.9908 -6.76179 95.9837 -6.16223 95.0412 -6.44461C94.1 -6.72827 93.541 -7.79975 93.7931 -8.83384C94.0451 -9.86664 95.0509 -10.4662 96.0385 -10.1697C97.0273 -9.87181 97.5862 -8.8016 97.2879 -7.78299ZM106.398 -4.28348C106.004 -3.31515 104.939 -2.81615 104.028 -3.1991C103.117 -3.57947 102.667 -4.70125 103.02 -5.70181C103.373 -6.6998 104.435 -7.18977 105.391 -6.79135C106.344 -6.38906 106.8 -5.27631 106.398 -4.28348ZM115.098 0.229687C114.605 1.16579 113.525 1.483 112.645 1.02655C111.773 0.553341 111.433 -0.605854 111.885 -1.5613C112.335 -2.51545 113.442 -2.89066 114.355 -2.39424C115.277 -1.91459 115.589 -0.697392 115.098 0.229687ZM123.308 5.67869C122.724 6.55548 121.611 6.76437 120.801 6.18027C119.977 5.62068 119.749 4.4344 120.292 3.53569C120.835 2.6357 121.976 2.38042 122.841 2.96709C123.689 3.57827 123.887 4.81222 123.308 5.67869ZM130.938 11.9997C130.273 12.8029 129.132 12.9048 128.391 12.2253C127.655 11.5393 127.517 10.3737 128.153 9.52916C128.774 8.70396 129.963 8.53761 130.735 9.25451C131.511 9.96625 131.601 11.1964 130.938 11.9997ZM137.914 19.12C137.175 19.846 136.024 19.8279 135.348 19.0762C134.678 18.318 134.692 17.1047 135.392 16.3517C136.106 15.5832 137.268 15.587 137.971 16.38C138.68 17.1666 138.653 18.3954 137.914 19.12ZM144.157 26.9661C143.35 27.6069 142.202 27.4663 141.596 26.6502C140.991 25.834 141.133 24.6206 141.911 23.9411C142.69 23.2629 143.835 23.4022 144.47 24.257C145.104 25.1119 144.963 26.3265 144.157 26.9661ZM149.585 35.4648C148.73 36.0064 147.605 35.7382 147.072 34.8678C146.542 33.9936 146.798 32.8061 147.639 32.2168C148.479 31.6276 149.611 31.8893 150.165 32.8048C150.724 33.7177 150.461 34.9104 149.585 35.4648ZM154.132 44.5246C153.205 44.9798 152.176 44.5555 151.71 43.6413C151.264 42.7181 151.629 41.5693 152.524 41.0754C153.418 40.5829 154.523 40.9659 154.991 41.9342C155.477 42.8922 155.035 44.0823 154.132 44.5246ZM157.763 54.0356C156.807 54.3812 155.781 53.8628 155.462 52.8816C155.101 51.9171 155.574 50.8173 156.511 50.4253C157.449 50.0346 158.517 50.5362 158.893 51.5484C159.229 52.576 158.715 53.6926 157.763 54.0356ZM160.43 63.8985C159.447 64.1345 158.468 63.5065 158.248 62.4956C158.03 61.4835 158.567 60.4532 159.551 60.167C160.511 59.8859 161.565 60.4919 161.794 61.5518C162.025 62.6117 161.413 63.6626 160.43 63.8985ZM162.106 74.0026C161.104 74.1276 160.189 73.3952 160.066 72.365C159.96 71.3335 160.609 70.3677 161.607 70.1923C162.598 70.0183 163.573 70.7403 163.685 71.8222C163.815 72.9001 163.107 73.8775 162.106 74.0026ZM162.777 84.2354C161.768 84.2509 160.927 83.4218 160.903 82.3839C160.892 81.3459 161.662 80.4549 162.659 80.3917C163.674 80.3272 164.544 81.1537 164.556 82.242C164.582 83.3277 163.784 84.2213 162.777 84.2354ZM152.445 94.5744C151.442 94.4661 150.685 93.5326 150.76 92.4907C150.835 91.4476 151.715 90.6469 152.723 90.6985C153.73 90.7514 154.485 91.6836 154.405 92.7809C154.326 93.8794 153.447 94.6814 152.445 94.5744ZM150.905 104.807C149.907 104.57 149.333 103.566 149.49 102.533C149.664 101.505 150.613 100.815 151.608 100.993C152.602 101.171 153.261 102.195 153.078 103.278C152.911 104.366 151.875 105.037 150.905 104.807ZM148.24 114.777C147.289 114.421 146.771 113.329 147.088 112.339C147.422 111.355 148.401 110.779 149.373 111.082C150.335 111.382 150.916 112.494 150.566 113.532C150.233 114.575 149.19 115.132 148.24 114.777ZM144.485 124.345C143.59 123.877 143.205 122.731 143.601 121.773C144.007 120.821 145.091 120.393 146.017 120.814C146.943 121.236 147.349 122.391 146.92 123.395C146.501 124.404 145.397 124.822 144.485 124.345ZM139.657 133.359C138.813 132.777 138.558 131.589 139.091 130.71C139.618 129.827 140.701 129.511 141.581 130.051C142.444 130.581 142.76 131.806 142.205 132.737C141.643 133.664 140.502 133.942 139.657 133.359ZM133.89 141.729C133.127 141.054 132.983 139.823 133.596 139.003C134.206 138.182 135.356 138.038 136.164 138.678C136.97 139.318 137.105 140.54 136.462 141.407C135.817 142.269 134.675 142.422 133.89 141.729ZM127.198 149.292C126.505 148.516 126.521 147.3 127.236 146.579C127.929 145.834 129.066 145.812 129.798 146.551C130.525 147.284 130.546 148.537 129.816 149.321C129.064 150.082 127.89 150.067 127.198 149.292ZM119.742 156.004C119.141 155.146 119.281 153.925 120.056 153.279C120.833 152.633 121.985 152.779 122.628 153.601C123.271 154.424 123.131 155.644 122.314 156.325C121.496 157.004 120.344 156.86 119.742 156.004ZM111.567 161.699C111.064 160.771 111.352 159.6 112.203 159.072C113.034 158.508 114.153 158.78 114.7 159.677C115.246 160.573 114.981 161.784 114.105 162.378C113.209 162.936 112.067 162.622 111.567 161.699ZM102.826 166.362C102.432 165.379 102.84 164.23 103.739 163.8C104.638 163.366 105.73 163.807 106.168 164.755C106.615 165.726 106.204 166.864 105.257 167.321C104.31 167.775 103.22 167.344 102.826 166.362ZM93.6196 169.866C93.3347 168.827 93.8888 167.806 94.8203 167.46C95.7555 167.125 96.7832 167.674 97.1144 168.683C97.4456 169.691 96.9171 170.796 95.932 171.149C94.9493 171.51 93.8973 170.877 93.6196 169.866ZM84.0842 172.195C83.9211 171.142 84.5749 170.134 85.5466 169.951C86.522 169.786 87.473 170.423 87.6885 171.469C87.904 172.51 87.2624 173.577 86.2346 173.754C85.2118 173.947 84.2474 173.247 84.0842 172.195ZM74.3566 173.331C74.3115 172.279 75.0726 171.335 76.0577 171.259C77.0416 171.18 77.9183 171.981 78.0169 173.044C78.1143 174.106 77.3533 175.037 76.317 175.121C75.2796 175.201 74.4028 174.412 74.3566 173.331ZM64.5717 173.212C64.6447 172.137 65.5008 171.366 66.4871 171.403C67.4734 171.429 68.2576 172.319 68.2369 173.386C68.2175 174.453 67.359 175.299 66.3191 175.27C65.2804 175.23 64.4998 174.266 64.5717 173.212ZM54.8641 171.902C55.054 170.854 55.9977 170.15 56.9694 170.333C57.9375 170.536 58.6219 171.482 58.4831 172.542C58.3455 173.597 57.3932 174.364 56.3728 174.152C55.3487 173.959 54.6729 172.951 54.8641 171.902ZM45.3707 169.396C45.6739 168.39 46.6907 167.803 47.6418 168.083C48.5916 168.369 49.1517 169.441 48.8959 170.474C48.6402 171.505 47.621 172.101 46.6201 171.8C45.6179 171.504 45.059 170.423 45.3707 169.396ZM36.2348 165.676C36.6536 164.705 37.7252 164.265 38.6238 164.696C39.5335 165.098 39.9828 166.202 39.6102 167.2C39.2412 168.187 38.1502 168.681 37.1906 168.257C36.2432 167.803 35.8159 166.647 36.2348 165.676ZM27.5675 160.869C28.0924 159.957 29.2139 159.638 30.0699 160.159C30.9247 160.68 31.228 161.867 30.7494 162.807C30.2697 163.745 29.1494 164.064 28.2483 163.514C27.3459 162.966 27.0427 161.78 27.5675 160.869ZM19.5195 154.975C20.1454 154.133 21.2742 153.983 22.0596 154.616C22.8644 155.221 23.0434 156.421 22.4626 157.294C21.883 158.167 20.7238 158.359 19.8763 157.72C19.0495 157.054 18.8997 155.81 19.5195 154.975ZM12.1597 148.143C12.8721 147.387 14.0313 147.357 14.7461 148.079C15.4621 148.797 15.4864 150.036 14.8216 150.82C14.1384 151.625 12.9878 151.646 12.2328 150.89C11.4802 150.13 11.4486 148.899 12.1597 148.143ZM5.63239 140.426C6.42996 139.758 7.54655 139.905 8.18583 140.7C8.83242 141.49 8.73988 142.704 7.98249 143.408C7.2251 144.114 6.05859 144.012 5.37791 143.179C4.70454 142.341 4.84821 141.081 5.63239 140.426ZM-0.0113831 131.959C0.848331 131.4 1.97959 131.659 2.51295 132.54C3.03901 133.424 2.80637 134.621 1.98562 135.219C1.14661 135.831 0.0031929 135.581 -0.552086 134.65C-1.11346 133.723 -0.869873 132.516 -0.0113831 131.959ZM-4.65486 122.839C-3.72576 122.385 -2.69438 122.816 -2.22557 123.738C-1.77624 124.668 -2.13791 125.825 -3.03048 126.323C-3.92183 126.82 -5.03113 126.429 -5.50481 125.449C-5.99676 124.478 -5.55717 123.279 -4.65486 122.839ZM-8.24901 113.201C-7.28946 112.873 -6.25195 113.408 -5.93534 114.398C-5.63579 115.394 -6.09004 116.485 -7.03376 116.866C-7.97261 117.247 -9.06609 116.733 -9.38391 115.684C-9.71756 114.641 -9.20734 113.528 -8.24901 113.201ZM-10.7405 103.181C-9.76268 102.979 -8.79345 103.642 -8.5633 104.658C-8.34168 105.676 -8.95778 106.712 -9.93558 106.972C-10.9134 107.231 -11.8973 106.573 -12.1311 105.5C-12.3734 104.428 -11.7414 103.388 -10.7405 103.181ZM-12.0689 92.9152C-11.0631 92.8353 -10.1839 93.6167 -10.1096 94.6585C-9.99153 95.6952 -10.7002 96.6455 -11.7012 96.7796C-12.6997 96.915 -13.6239 96.14 -13.7469 95.0466C-13.8272 93.9493 -13.0735 92.9939 -12.0689 92.9152ZM-12.2674 82.5543C-11.2592 82.6007 -10.4604 83.4852 -10.4847 84.5297C-10.52 85.5754 -11.3408 86.4302 -12.3381 86.4393C-13.3573 86.4496 -14.1768 85.5663 -14.1402 84.4652C-14.1147 83.3653 -13.2732 82.5091 -12.2674 82.5543ZM-11.3269 72.2399C-10.343 72.4089 -9.6501 73.3862 -9.767 74.4242C-9.89121 75.4609 -10.8069 76.2074 -11.8103 76.0927C-12.8112 75.9779 -13.5199 74.9992 -13.3896 73.9058C-13.2667 72.8124 -12.3339 72.0685 -11.3269 72.2399ZM-9.2135 62.1232C-8.24422 62.4185 -7.67435 63.4732 -7.94468 64.479C-8.17725 65.4937 -9.14775 66.1255 -10.1329 65.8844C-11.1119 65.6446 -11.7293 64.5782 -11.4833 63.508C-11.1996 62.4482 -10.1816 61.8292 -9.2135 62.1232ZM-6.00736 52.3337C-5.07826 52.7489 -4.61671 53.8745 -4.97837 54.8467C-5.33881 55.8189 -6.40799 56.3102 -7.3517 55.9492C-8.30393 55.5855 -8.76298 54.4612 -8.38306 53.4361C-8.00071 52.4123 -6.93646 51.9185 -6.00736 52.3337ZM-1.69694 43.0302C-0.812904 43.564 -0.52795 44.7129 -0.980927 45.6413C-1.43025 46.5722 -2.52739 46.9358 -3.42848 46.4562C-4.32956 45.9765 -4.67659 44.7929 -4.20291 43.8129C-3.72436 42.8356 -2.56393 42.5067 -1.69694 43.0302ZM3.60814 34.3227C4.4179 34.9571 4.6139 36.1653 4.04158 37.0163C3.46075 37.8621 2.33201 38.0865 1.49911 37.5037C0.650383 36.9093 0.434814 35.6882 1.04731 34.7973C1.64885 33.8998 2.79716 33.6883 3.60814 34.3227ZM9.85326 26.3449C10.5973 27.0863 10.6094 28.2622 9.97746 29.0668C9.33086 29.8572 8.18136 29.9359 7.41178 29.246C6.6422 28.5562 6.56914 27.321 7.24983 26.4893C7.91591 25.6435 9.12873 25.6241 9.85326 26.3449ZM16.9366 19.1961C17.5856 20.0149 17.5076 21.2346 16.7612 21.9193C16.005 22.5911 14.8725 22.5485 14.1857 21.7684C13.4977 20.9871 13.5428 19.7286 14.3392 19.0207C15.1246 18.2986 16.2888 18.3799 16.9366 19.1961ZM24.7629 12.9798C25.3169 13.8759 25.0819 15.0415 24.2868 15.663C23.4831 16.2678 22.3458 16.0589 21.7492 15.1976C21.1537 14.3362 21.3559 13.119 22.2034 12.4808C23.0423 11.8284 24.2125 12.0901 24.7629 12.9798ZM33.2362 7.79376C33.6855 8.7492 33.3372 9.91352 32.4593 10.3893C31.5716 10.8483 30.4939 10.5505 29.9935 9.61051C29.5027 8.69246 29.8121 7.45468 30.746 6.96987C31.6715 6.4683 32.7868 6.83833 33.2362 7.79376ZM42.2222 3.68915C42.5559 4.68328 42.0822 5.79861 41.1665 6.1893C40.2484 6.57225 39.189 6.081 38.8006 5.09589C38.4133 4.11079 38.8822 2.98256 39.849 2.57768C40.8146 2.16636 41.8801 2.6731 42.2222 3.68915ZM51.6126 0.779015C51.8354 1.82085 51.2363 2.85755 50.2755 3.09222C49.3209 3.35526 48.3322 2.76728 48.057 1.73576C47.7842 0.713261 48.3674 -0.381435 49.3745 -0.658657C50.3876 -0.907513 51.3897 -0.261536 51.6126 0.779015ZM61.2607 -0.959385C61.3654 0.101776 60.6567 1.07399 59.6777 1.20551C58.6986 1.33832 57.7768 0.582703 57.6209 -0.466854C57.4626 -1.52673 58.1713 -2.49247 59.2027 -2.63301C60.2353 -2.77226 61.1559 -2.02055 61.2607 -0.959385ZM71.0337 -1.46317C71.0203 -0.394245 70.2081 0.43483 69.2218 0.479958C68.2343 0.507034 67.4038 -0.340084 67.3648 -1.40642C67.3258 -2.47276 68.1368 -3.36246 69.1755 -3.39082C70.2154 -3.43595 71.0471 -2.52951 71.0337 -1.46317ZM80.795 -0.750103C80.6635 0.308491 79.7624 1.06406 78.7834 0.931248C77.802 0.822941 77.0665 -0.0860786 77.1457 -1.15757C77.2248 -2.21358 78.1308 -3.03363 79.1646 -2.91888C80.196 -2.78091 80.9265 -1.80741 80.795 -0.750103ZM90.4151 1.15286C90.1655 2.18825 89.1828 2.8394 88.2208 2.60473C87.2601 2.37006 86.6427 1.32308 86.8387 0.282539C87.0372 -0.769608 88.0175 -1.4169 89.0318 -1.17063C90.045 -0.923065 90.6647 0.118771 90.4151 1.15286ZM99.744 4.28093C99.3751 5.29053 98.351 5.74314 97.4109 5.42337C96.4757 5.08941 95.974 3.99212 96.2882 2.97736C96.6011 1.9626 97.6545 1.42493 98.6396 1.77822C99.6296 2.11605 100.103 3.2997 99.744 4.28093ZM108.662 8.5517C108.188 9.49425 107.091 9.87589 106.212 9.39882C105.341 8.90626 104.954 7.78191 105.379 6.81486C105.805 5.84652 106.924 5.41717 107.842 5.93422C108.768 6.43579 109.134 7.60915 108.662 8.5517ZM117.037 13.9091C116.462 14.7859 115.348 14.9973 114.508 14.4481C113.677 13.8833 113.436 12.688 113.967 11.7803C114.498 10.8739 115.639 10.6173 116.514 11.2117C117.398 11.7919 117.612 13.0323 117.037 13.9091ZM124.748 20.2867C124.08 21.0849 122.93 21.1803 122.184 20.4957C121.451 19.7955 121.305 18.6299 121.942 17.784C122.561 16.9601 123.763 16.7963 124.536 17.5326C125.323 18.2534 125.417 19.4873 124.748 20.2867ZM131.712 27.5658C130.967 28.2698 129.82 28.2157 129.131 27.4678C128.449 26.7122 128.48 25.4873 129.198 24.7369C129.914 23.9865 131.078 24.0213 131.796 24.8181C132.522 25.6072 132.472 26.8489 131.712 27.5658ZM137.801 35.6789C136.975 36.2901 135.838 36.0967 135.266 35.2444C134.696 34.3921 134.819 33.2148 135.624 32.5521C136.409 31.9022 137.605 32.0479 138.208 32.9454C138.811 33.8428 138.627 35.0677 137.801 35.6789ZM142.969 44.4782C142.093 44.9746 140.965 44.6523 140.474 43.7458C139.982 42.8406 140.285 41.657 141.149 41.1038C142.011 40.5519 143.132 40.8769 143.651 41.831C144.169 42.7865 143.869 43.9676 142.969 44.4782ZM147.081 53.882C146.141 54.2701 145.083 53.7969 144.721 52.8247C144.328 51.8667 144.735 50.741 145.657 50.3C146.573 49.8616 147.676 50.3129 148.091 51.3225C148.473 52.3476 148.018 53.4939 147.081 53.882ZM150.139 63.7244C149.163 63.9913 148.15 63.393 147.879 62.3873C147.61 61.3828 148.175 60.3062 149.136 59.9851C150.098 59.6654 151.11 60.2623 151.394 61.3222C151.678 62.3808 151.115 63.4575 150.139 63.7244ZM152.042 73.8878C151.027 74.0335 150.162 73.2999 149.972 72.2735C149.798 71.2446 150.464 70.2504 151.455 70.0532C152.445 69.8559 153.398 70.5741 153.581 71.6585C153.779 72.7403 153.026 73.7486 152.042 73.8878ZM152.802 84.2189C151.794 84.2357 150.952 83.4014 150.928 82.3557C150.924 81.31 151.634 80.41 152.655 80.3365C153.646 80.2656 154.575 81.0934 154.581 82.1946C154.608 83.2957 153.809 84.2022 152.802 84.2189ZM142.422 94.4956C141.427 94.3757 140.711 93.4448 140.769 92.4145C140.843 91.3843 141.723 90.5978 142.73 90.6571C143.736 90.7164 144.49 91.6499 144.411 92.742C144.348 93.8354 143.429 94.6181 142.422 94.4956ZM140.715 104.61C139.739 104.347 139.12 103.318 139.339 102.312C139.574 101.309 140.52 100.649 141.504 100.849C142.502 101.05 143.156 102.087 142.908 103.152C142.676 104.219 141.692 104.872 140.715 104.61ZM137.738 114.385C136.803 113.986 136.331 112.882 136.689 111.923C137.018 110.95 138.037 110.43 138.997 110.771C139.948 111.109 140.468 112.231 140.12 113.262C139.741 114.281 138.673 114.784 137.738 114.385ZM133.556 123.654C132.666 123.117 132.39 121.987 132.818 121.058C133.261 120.139 134.358 119.779 135.262 120.251C136.165 120.723 136.518 121.898 136.047 122.872C135.592 123.857 134.418 124.173 133.556 123.654ZM128.249 132.254C127.456 131.615 127.269 130.411 127.83 129.566C128.395 128.725 129.534 128.528 130.37 129.124C131.207 129.719 131.402 130.928 130.801 131.82C130.206 132.716 129.061 132.908 128.249 132.254ZM121.903 140.025C121.188 139.27 121.153 138.051 121.827 137.303C122.51 136.567 123.643 136.512 124.393 137.215C125.152 137.928 125.214 139.172 124.49 139.955C123.776 140.748 122.616 140.778 121.903 140.025ZM114.636 146.828C114.022 145.981 114.145 144.774 114.911 144.136C115.678 143.497 116.79 143.579 117.456 144.395C118.109 145.194 118.032 146.459 117.22 147.137C116.406 147.816 115.248 147.675 114.636 146.828ZM106.582 152.555C106.078 151.623 106.365 150.47 107.197 149.932C108.018 149.373 109.132 149.649 109.684 150.543C110.235 151.435 109.978 152.641 109.108 153.231C108.225 153.804 107.08 153.476 106.582 152.555ZM97.883 157.103C97.5043 156.117 97.9329 155.011 98.8158 154.571C99.7035 154.146 100.777 154.585 101.212 155.548C101.646 156.512 101.235 157.66 100.293 158.112C99.3552 158.578 98.2641 158.095 97.883 157.103ZM88.6868 160.375C88.436 159.339 88.9924 158.269 89.9301 157.988C90.8701 157.712 91.8772 158.299 92.1828 159.303C92.4945 160.332 91.9429 161.413 90.9444 161.707C89.9496 162.006 88.9377 161.408 88.6868 160.375ZM79.155 162.286C79.0369 161.225 79.7249 160.256 80.6929 160.127C81.6573 159.982 82.5755 160.664 82.7532 161.722C82.9298 162.765 82.2516 163.802 81.2275 163.957C80.201 164.095 79.2719 163.346 79.155 162.286ZM69.4681 162.861C69.4828 161.792 70.2864 160.963 71.2617 160.918C72.2371 160.892 73.0627 161.739 73.1065 162.805C73.1491 163.872 72.3467 164.761 71.3129 164.788C70.2791 164.833 69.4535 163.927 69.4681 162.861ZM59.7971 162.078C59.9457 161.021 60.8517 160.268 61.8185 160.398C62.7842 160.544 63.499 161.476 63.4101 162.532C63.32 163.603 62.4128 164.395 61.3875 164.242C60.3609 164.104 59.6486 163.133 59.7971 162.078ZM50.31 159.923C50.5913 158.898 51.5801 158.292 52.5177 158.575C53.4663 158.811 54.0556 159.842 53.8328 160.885C53.6112 161.925 52.6115 162.574 51.6045 162.323C50.6084 162.025 50.0299 160.949 50.31 159.923ZM41.1799 156.456C41.5903 155.475 42.6326 155.051 43.5459 155.412C44.4531 155.789 44.9012 156.911 44.5481 157.912C44.1962 158.911 43.1295 159.398 42.1663 158.996C41.197 158.611 40.7732 157.427 41.1799 156.456ZM32.5663 151.732C33.0923 150.824 34.209 150.499 35.054 151.015C35.9003 151.527 36.1938 152.717 35.7225 153.649C35.2416 154.599 34.131 154.915 33.2323 154.371C32.3361 153.825 32.0366 152.643 32.5663 151.732ZM24.6389 145.808C25.2757 144.982 26.4168 144.826 27.1827 145.464C27.9389 146.116 28.1191 147.282 27.5249 148.154C26.9392 149.014 25.7604 149.225 24.9568 148.534C24.1434 147.857 24.0021 146.636 24.6389 145.808ZM17.5184 138.829C18.2538 138.1 19.3972 138.111 20.0706 138.859C20.7647 139.582 20.7805 140.782 20.0852 141.56C19.3948 142.331 18.216 142.359 17.4793 141.59C16.7645 140.797 16.7829 139.561 17.5184 138.829ZM11.33 130.92C12.1605 130.291 13.254 130.493 13.8629 131.301C14.4656 132.112 14.3158 133.316 13.5316 133.988C12.7474 134.658 11.5918 134.505 10.9525 133.643C10.3084 132.786 10.5202 131.533 11.33 130.92ZM6.18411 122.212C7.0657 121.719 8.16766 122.047 8.66203 122.937C9.14788 123.832 8.84106 125.009 7.97895 125.563C7.11806 126.118 5.99901 125.799 5.48393 124.849C4.95912 123.904 5.28425 122.717 6.18411 122.212ZM2.18981 112.85C3.13596 112.481 4.19659 112.961 4.55459 113.92C4.8992 114.886 4.46328 116 3.54879 116.424C2.61604 116.855 1.52982 116.389 1.16208 115.364C0.782162 114.345 1.24366 113.219 2.18981 112.85ZM-0.570061 103.002C0.415054 102.772 1.39407 103.4 1.61204 104.405C1.84949 105.406 1.29787 106.442 0.321285 106.736C-0.640694 107.027 -1.67936 106.417 -1.93142 105.354C-2.16522 104.285 -1.55396 103.232 -0.570061 103.002ZM-2.07388 92.8543C-1.06075 92.764 -0.215633 93.5299 -0.074379 94.5524C0.0498238 95.5762 -0.663792 96.529 -1.66109 96.6812C-2.65838 96.8333 -3.57652 96.0765 -3.70681 94.9895C-3.85537 93.9051 -3.06995 92.9432 -2.07388 92.8543ZM-2.29774 82.5837C-1.29071 82.6353 -0.490696 83.5134 -0.515049 84.5462C-0.550362 85.579 -1.36987 86.4249 -2.36716 86.4352C-3.38637 86.4468 -4.20591 85.5687 -4.17059 84.474C-4.1438 83.3793 -3.30356 82.5321 -2.29774 82.5837ZM-1.22029 72.3756C-0.227875 72.5678 0.439396 73.5477 0.267704 74.565C0.145935 75.5888 -0.768517 76.3134 -1.76945 76.1832C-2.76917 76.0529 -3.47792 75.0666 -3.34641 73.9796C-3.16497 72.9017 -2.21149 72.1822 -1.22029 72.3756ZM1.11354 62.4056C2.06941 62.7357 2.58814 63.7969 2.3373 64.7936C2.07185 65.7877 1.06118 66.3718 0.0858307 66.101C-0.888306 65.8303 -1.4521 64.7562 -1.1696 63.7015C-0.901711 62.6429 0.152794 62.0729 1.11354 62.4056ZM4.69033 52.8556C5.59872 53.3198 6.01151 54.4622 5.60968 55.4021C5.2042 56.3408 4.12774 56.7754 3.20718 56.3731C2.26471 55.9618 1.84221 54.8181 2.27327 53.8214C2.69945 52.8234 3.78316 52.3914 4.69033 52.8556ZM9.46224 43.911C10.3037 44.5002 10.5606 45.6839 10.0346 46.5529C9.49637 47.4155 8.43084 47.7288 7.54679 47.186C6.68709 46.6586 6.35713 45.4298 6.92701 44.5144C7.48472 43.5912 8.62202 43.323 9.46224 43.911ZM15.3082 35.7138C16.0704 36.4178 16.163 37.6156 15.5347 38.4048C14.9332 39.2171 13.7958 39.3421 12.9982 38.6897C12.2006 38.036 12.0715 36.8072 12.7108 35.9459C13.3769 35.109 14.552 35.0136 15.3082 35.7138ZM22.1246 28.4043C22.7956 29.2127 22.7177 30.3899 22.0236 31.1158C21.3186 31.8289 20.169 31.7876 19.4603 31.0282C18.7528 30.2687 18.7833 29.0386 19.5322 28.2831C20.2689 27.5133 21.4646 27.6087 22.1246 28.4043ZM29.7926 22.1076C30.3442 22.9857 30.1579 24.2003 29.3628 24.7973C28.5676 25.3956 27.429 25.1867 26.8226 24.3344C26.215 23.4821 26.4049 22.274 27.2476 21.6396C28.0927 21.0065 29.2263 21.2077 29.7926 22.1076ZM38.1873 16.968C38.6294 17.9273 38.2847 19.0903 37.4177 19.561C36.5422 20.0161 35.4609 19.6899 34.9665 18.7589C34.4721 17.8293 34.7912 16.6173 35.7191 16.1337C36.6409 15.6334 37.7465 16.0087 38.1873 16.968ZM47.1636 13.0648C47.4802 14.0795 46.9883 15.1716 46.064 15.503C45.152 15.8653 44.1181 15.3766 43.7443 14.3812C43.3741 13.3935 43.8465 12.2486 44.8158 11.8643C45.7961 11.5123 46.8482 12.0513 47.1636 13.0648ZM56.5478 10.4599C56.7341 11.5185 56.0985 12.4843 55.1523 12.7357C54.2025 12.9691 53.2356 12.3128 52.9921 11.2774C52.7486 10.242 53.3684 9.19891 54.3766 8.95263C55.3812 8.6883 56.3651 9.4194 56.5478 10.4599ZM66.1772 9.20156C66.2283 10.2679 65.4807 11.1988 64.509 11.2775C63.536 11.3523 62.6593 10.5555 62.5497 9.50845C62.4389 8.43436 63.1841 7.49955 64.2155 7.4196C65.2481 7.33579 66.1261 8.13521 66.1772 9.20156ZM75.875 9.32693C75.7934 10.3907 74.9386 11.194 73.9656 11.1141C72.9915 11.0805 72.2194 10.1973 72.2414 9.12837C72.2645 8.06332 73.1205 7.21231 74.1544 7.24841C75.1857 7.33093 75.9566 8.26317 75.875 9.32693ZM85.4795 10.7813C85.2652 11.8179 84.3203 12.4807 83.3571 12.3144C82.3976 12.1338 81.7473 11.1281 81.9031 10.0734C82.059 9.01863 83.0113 8.31721 84.0305 8.50933C85.0521 8.68727 85.6951 9.73297 85.4795 10.7813ZM94.8115 13.5933C94.4657 14.5964 93.4356 15.1457 92.5126 14.8143C91.5932 14.4701 91.072 13.3973 91.3569 12.3838C91.648 11.351 92.6854 10.7746 93.662 11.1395C94.6422 11.4903 95.1561 12.5914 94.8115 13.5933ZM103.692 17.7197C103.223 18.6649 102.137 19.053 101.27 18.5823C100.398 18.122 100.004 17.0119 100.423 16.0306C100.834 15.0662 101.948 14.6162 102.874 15.1036C103.796 15.6026 104.161 16.7759 103.692 17.7197ZM111.984 23.0565C111.394 23.9359 110.291 24.1319 109.474 23.5697C108.652 23.0127 108.422 21.8252 108.956 20.9187C109.491 20.0149 110.631 19.757 111.501 20.3488C112.37 20.9471 112.561 22.1952 111.984 23.0565ZM119.531 29.5075C118.848 30.2837 117.716 30.3405 116.968 29.6764C116.231 29.0008 116.158 27.7836 116.801 26.961C117.444 26.1397 118.601 26.052 119.383 26.7702C120.174 27.4755 120.223 28.7223 119.531 29.5075ZM126.209 36.9605C125.429 37.6388 124.277 37.5563 123.638 36.7762C123.003 35.9935 123.085 34.7737 123.817 34.0581C124.566 33.3244 125.719 33.4044 126.395 34.2334C127.072 35.0612 126.988 36.2836 126.209 36.9605ZM131.875 45.3009C131.018 45.8617 129.893 45.6142 129.367 44.7451C128.858 43.8645 129.035 42.7066 129.871 42.0864C130.684 41.4791 131.875 41.679 132.418 42.6125C132.977 43.5344 132.732 44.7387 131.875 45.3009ZM136.448 54.3592C135.527 54.795 134.455 54.385 134.05 53.445C133.605 52.527 133.974 51.382 134.867 50.8894C135.762 50.3981 136.872 50.7875 137.343 51.7636C137.773 52.7603 137.367 53.9247 136.448 54.3592ZM139.844 63.981C138.871 64.2827 137.892 63.7141 137.562 62.7419C137.249 61.7645 137.769 60.6788 138.718 60.3178C139.667 59.9568 140.706 60.5048 141.038 61.5427C141.386 62.5756 140.806 63.6831 139.844 63.981ZM141.992 73.9987C140.994 74.1599 140.043 73.4662 139.872 72.4501C139.703 71.4328 140.365 70.4283 141.339 70.2091C142.336 69.9835 143.288 70.6759 143.469 71.7551C143.65 72.8344 142.988 73.8388 141.992 73.9987ZM142.833 84.2331C141.825 84.2524 140.985 83.4311 140.96 82.3982C140.913 81.3667 141.651 80.4667 142.663 80.3855C143.661 80.3043 144.561 81.123 144.612 82.2165C144.639 83.3112 143.84 84.215 142.833 84.2331ZM132.314 94.5988C131.311 94.4544 130.633 93.5054 130.764 92.4739C130.813 91.4333 131.67 90.6481 132.677 90.7177C133.682 90.7873 134.456 91.7467 134.401 92.8594C134.262 93.9644 133.309 94.7406 132.314 94.5988ZM130.311 104.785C129.345 104.477 128.757 103.408 129.001 102.401C129.246 101.393 130.245 100.768 131.229 101.004C132.211 101.238 132.8 102.306 132.536 103.386C132.273 104.467 131.275 105.092 130.311 104.785ZM126.757 114.483C125.85 114.019 125.458 112.879 125.886 111.942C126.346 111.02 127.333 110.53 128.28 110.93C129.206 111.323 129.719 112.514 129.229 113.506C128.774 114.51 127.665 114.949 126.757 114.483ZM121.887 123.519C121.472 123.216 121.22 122.768 121.138 122.294C121.034 121.801 121.094 121.276 121.35 120.829C121.86 119.939 122.978 119.663 123.844 120.211C124.71 120.758 124.97 121.975 124.423 122.928C124.15 123.403 123.732 123.713 123.28 123.824C122.804 123.92 122.302 123.82 121.887 123.519ZM115.675 131.583C114.947 130.844 114.89 129.616 115.552 128.847C116.213 128.077 117.38 128.008 118.155 128.693C118.928 129.377 118.984 130.601 118.277 131.427C117.568 132.252 116.402 132.32 115.675 131.583ZM108.377 138.541C107.767 137.691 107.908 136.494 108.697 135.871C109.462 135.219 110.564 135.269 111.237 136.083C111.892 136.875 111.828 138.169 111.01 138.869C110.167 139.539 108.987 139.39 108.377 138.541ZM100.175 144.276C99.6978 143.336 99.9901 142.132 100.83 141.59C101.67 141.049 102.788 141.347 103.326 142.249C103.865 143.152 103.572 144.355 102.673 144.934C101.772 145.513 100.652 145.216 100.175 144.276ZM91.1717 148.453C90.8393 147.444 91.3178 146.333 92.2408 145.976C93.165 145.618 94.2366 146.129 94.6348 147.11C95.0317 148.09 94.5544 149.2 93.5656 149.585C92.5757 149.969 91.5029 149.46 91.1717 148.453ZM81.6925 151.167C81.5087 150.086 82.1711 149.202 83.1172 148.912C84.0682 148.651 85.0412 149.283 85.2872 150.318C85.5344 151.354 84.9085 152.42 83.8868 152.696C82.8725 153 81.8642 152.187 81.6925 151.167ZM71.9171 152.234C71.8952 151.167 72.6745 150.255 73.6572 150.202C74.6399 150.15 75.5094 150.973 75.5995 152.037C75.6896 153.1 74.9114 154.011 73.8593 154.067C72.8085 154.123 71.9378 153.301 71.9171 152.234ZM62.1078 151.701C62.2441 150.638 63.1416 149.919 64.1145 150.059C65.0972 150.11 65.84 151.019 65.773 152.084C65.7073 153.149 64.8013 153.969 63.7504 153.911C62.7069 153.764 61.9738 152.754 62.1078 151.701ZM52.4875 149.577C52.7785 148.556 53.788 147.933 54.739 148.191C55.6912 148.45 56.2818 149.508 56.0589 150.55C55.8373 151.591 54.829 152.212 53.8086 151.935C52.7882 151.657 52.1976 150.599 52.4875 149.577ZM43.3282 145.818C43.7666 144.856 44.843 144.441 45.7283 144.894C46.5989 145.381 47.0617 146.428 46.6842 147.429C46.3128 148.41 45.1877 148.953 44.2513 148.436C43.3027 147.952 42.8886 146.779 43.3282 145.818ZM34.7949 140.659C35.0811 140.218 35.5037 139.951 35.9518 139.866C36.4169 139.755 36.9125 139.82 37.3351 140.09C38.1753 140.631 38.4359 141.814 37.9183 142.731C37.402 143.647 36.2525 143.923 35.3527 143.342C34.9045 143.055 34.6111 142.611 34.5063 142.134C34.4162 141.63 34.51 141.098 34.7949 140.659ZM27.181 134.081C27.8788 133.309 29.038 133.25 29.765 133.95C30.4932 134.652 30.5565 135.887 29.9099 136.707C29.2646 137.527 28.1077 137.586 27.3284 136.836C26.5491 136.087 26.4845 134.852 27.181 134.081ZM20.6084 126.352C21.4109 125.704 22.5409 125.855 23.1291 126.689C23.7452 127.499 23.6977 128.667 22.9294 129.379C22.1817 130.074 20.9591 130.006 20.2979 129.139C19.6659 128.247 19.806 126.997 20.6084 126.352ZM15.1934 117.667C16.0811 117.162 17.2184 117.471 17.7299 118.36C18.2413 119.249 17.9601 120.434 17.1077 121.004C16.2552 121.574 15.1191 121.265 14.5723 120.311C14.0256 119.358 14.3056 118.173 15.1934 117.667ZM11.2487 108.135C12.201 107.784 13.2494 108.291 13.5867 109.268C13.924 110.245 13.4418 111.381 12.5151 111.802C11.5897 112.223 10.5412 111.716 10.1783 110.669C9.81667 109.622 10.2965 108.487 11.2487 108.135ZM8.68749 98.0945C9.70791 97.8998 10.5445 98.6013 10.8172 99.6032C11.0632 100.611 10.4665 101.64 9.48875 101.902C8.51095 102.164 7.50394 101.5 7.24335 100.419C6.95598 99.344 7.72431 98.2776 8.68749 98.0945ZM7.67798 87.7443C8.68623 87.7224 9.54834 88.5476 9.59705 89.5868C9.64697 90.6274 8.8689 91.548 7.8643 91.6447C6.86093 91.7401 5.99998 90.9162 5.94762 89.8022C5.89404 88.6881 6.67095 87.7675 7.67798 87.7443ZM8.18182 77.3577C9.18519 77.5008 9.86467 78.4511 9.73195 79.4826C9.68446 80.5219 8.82598 81.3084 7.82017 81.2388C6.81436 81.1692 6.03992 80.2098 6.09472 79.0958C6.23475 77.9921 7.18819 77.2146 8.18182 77.3577ZM10.1867 67.1714C11.1523 67.4796 11.7392 68.5472 11.4957 69.5555C11.2509 70.5638 10.2512 71.1879 9.26733 70.9532C8.28466 70.7173 7.69769 69.6509 7.9595 68.5704C8.22252 67.4899 9.22107 66.8633 10.1867 67.1714ZM13.737 57.4719C14.6454 57.9373 15.0375 59.0759 14.6101 60.0133C14.1498 60.9365 13.161 61.4265 12.2161 61.0255C11.2894 60.6335 10.7768 59.4421 11.2651 58.4505C11.7217 57.4448 12.8298 57.0077 13.737 57.4719ZM18.6073 48.4381C19.0238 48.7411 19.2758 49.1886 19.3562 49.6631C19.4609 50.1556 19.4013 50.6791 19.1444 51.1265C18.6354 52.0175 17.5163 52.2921 16.6505 51.7454C15.786 51.1987 15.5254 49.9802 16.0734 49.0274C16.3461 48.5541 16.7638 48.2434 17.2143 48.1312C17.6904 48.0371 18.1933 48.1351 18.6073 48.4381ZM24.8199 40.3739C25.548 41.1127 25.6041 42.339 24.9429 43.11C24.2804 43.8798 23.1139 43.9468 22.3394 43.2635C21.565 42.5801 21.509 41.3552 22.2177 40.5287C22.9252 39.7034 24.0929 39.6351 24.8199 40.3739ZM32.12 33.4147C32.7313 34.2657 32.5889 35.4623 31.801 36.0838C31.0363 36.7375 29.9329 36.6872 29.2607 35.8736C28.6044 35.0819 28.669 33.7861 29.4873 33.086C30.3299 32.4181 31.5111 32.5663 32.12 33.4147ZM40.3221 27.6794C40.8006 28.6206 40.5084 29.825 39.6682 30.3665C38.828 30.9068 37.709 30.6102 37.1708 29.7076C36.6325 28.805 36.9247 27.6007 37.8258 27.0231C38.7257 26.4441 39.8447 26.7394 40.3221 27.6794ZM49.3267 23.5041C49.6579 24.5124 49.1794 25.6239 48.2564 25.9798C47.3334 26.3369 46.2606 25.8276 45.8636 24.8464C45.4654 23.8664 45.9439 22.7562 46.9327 22.372C47.9215 21.9878 48.9943 22.4971 49.3267 23.5041ZM58.8062 20.7901C58.99 21.8706 58.3277 22.7551 57.3815 23.0439C56.4293 23.3044 55.4576 22.6726 55.2104 21.6372C54.9644 20.6031 55.5903 19.5367 56.6107 19.2595C57.6263 18.9552 58.6345 19.7688 58.8062 20.7901ZM68.5814 19.722C68.6021 20.7896 67.8228 21.7012 66.8414 21.7541C65.8587 21.8057 64.9892 20.9818 64.8979 19.9193C64.8078 18.8556 65.5871 17.9452 66.638 17.8885C67.6901 17.8318 68.5607 18.6557 68.5814 19.722ZM78.3873 20.2559C78.2521 21.3183 77.3546 22.0365 76.3817 21.8973C75.399 21.847 74.6562 20.938 74.722 19.8716C74.7878 18.8079 75.6937 17.9879 76.7458 18.0459C77.7881 18.1929 78.5224 19.2024 78.3873 20.2559ZM88.009 22.3782C87.7192 23.4007 86.7097 24.0235 85.7574 23.7643C84.8052 23.5052 84.2158 22.4478 84.4374 21.406C84.6603 20.3654 85.6686 19.7427 86.689 20.0212C87.7082 20.2997 88.3 21.357 88.009 22.3782ZM97.1696 26.1385C96.7301 27.0991 95.6548 27.5155 94.7695 27.0617C93.8977 26.5743 93.4349 25.5285 93.8136 24.528C94.1838 23.5467 95.3102 23.0026 96.2454 23.521C97.1952 24.0032 97.608 25.1778 97.1696 26.1385ZM105.699 31.2976C105.412 31.7373 104.99 32.0042 104.542 32.0906C104.077 32.2015 103.582 32.137 103.16 31.8662C102.318 31.326 102.059 30.1423 102.575 29.2255C103.093 28.3088 104.242 28.0328 105.142 28.6131C105.59 28.9019 105.882 29.3455 105.988 29.8225C106.077 30.3267 105.985 30.8579 105.699 31.2976ZM113.317 37.875C112.619 38.646 111.461 38.7054 110.733 38.0052C110.006 37.3051 109.943 36.0698 110.588 35.2498C111.233 34.4297 112.39 34.3704 113.171 35.1196C113.95 35.87 114.014 37.1052 113.317 37.875ZM119.887 45.6052C119.085 46.2512 117.953 46.1016 117.367 45.2661C116.749 44.4563 116.797 43.2894 117.565 42.5764C118.313 41.8827 119.537 41.951 120.198 42.8175C120.83 43.7098 120.688 44.9592 119.887 45.6052ZM125.305 54.2897C124.416 54.7951 123.278 54.4856 122.767 53.5959C122.257 52.7075 122.537 51.5226 123.389 50.9527C124.241 50.3828 125.379 50.6922 125.924 51.6451C126.471 52.5992 126.192 53.7842 125.305 54.2897ZM129.248 63.8211C128.296 64.1731 127.248 63.6664 126.91 62.689C126.573 61.7103 127.054 60.5757 127.981 60.154C128.907 59.7337 129.954 60.2392 130.317 61.2875C130.68 62.3344 130.199 63.4704 129.248 63.8211ZM131.81 73.8606C130.789 74.0553 129.954 73.3539 129.681 72.3521C129.435 71.345 130.032 70.3148 131.01 70.0543C131.986 69.7926 132.993 70.4553 133.255 71.5371C133.542 72.6125 132.774 73.6788 131.81 73.8606ZM132.818 84.2123C131.81 84.2342 130.949 83.409 130.899 82.3684C130.851 81.3279 131.629 80.4073 132.632 80.3118C133.637 80.2164 134.496 81.0403 134.55 82.1544C134.604 83.2671 133.825 84.1891 132.818 84.2123ZM122.254 94.4955C121.259 94.3266 120.566 93.3685 120.714 92.3576C120.899 91.3519 121.686 90.5822 122.708 90.666C123.695 90.7459 124.539 91.7181 124.345 92.8128C124.188 93.9101 123.25 94.6631 122.254 94.4955ZM119.904 104.473C118.955 104.112 118.453 103.039 118.787 102.08C119.042 101.095 120.016 100.514 120.994 100.791C121.964 101.067 122.555 102.167 122.275 103.237C121.916 104.28 120.853 104.833 119.904 104.473ZM115.856 113.822C114.969 113.271 114.723 112.155 115.152 111.239C115.57 110.316 116.648 109.946 117.557 110.409C118.465 110.872 118.835 112.058 118.379 113.059C117.911 114.051 116.708 114.352 115.856 113.822ZM110.249 122.224C109.473 121.512 109.434 120.376 109.984 119.53C110.561 118.71 111.692 118.561 112.504 119.192C113.318 119.824 113.469 121.058 112.84 121.947C112.24 122.858 110.996 122.911 110.249 122.224ZM103.285 129.401C102.968 128.986 102.844 128.48 102.891 128.006C102.927 127.514 103.114 127.028 103.475 126.684C104.189 125.994 105.33 126.07 106.021 126.849C106.71 127.627 106.643 128.866 105.866 129.611C105.479 129.98 105.002 130.156 104.534 130.118C104.053 130.062 103.601 129.816 103.285 129.401ZM95.1992 135.113C94.7389 134.195 95.0165 132.984 95.8433 132.454C96.6689 131.923 97.7807 132.225 98.325 133.124C98.8681 134.022 98.5844 135.221 97.6882 135.797C96.7895 136.37 95.6838 136.082 95.1992 135.113ZM86.2487 139.127C85.9492 138.109 86.4399 136.992 87.3471 136.64C88.253 136.289 89.2966 136.81 89.6753 137.801C90.0528 138.789 89.5621 139.904 88.577 140.285C87.5918 140.667 86.5483 140.146 86.2487 139.127ZM76.7481 141.297C76.6312 140.236 77.3095 139.247 78.2654 139.092C79.22 138.939 80.1553 139.667 80.3538 140.714C80.5522 141.76 79.874 142.748 78.8377 142.915C77.8015 143.083 76.8651 142.356 76.7481 141.297ZM67.0378 141.593C67.1048 140.528 67.9426 139.702 68.9082 139.755C69.8726 139.829 70.6678 140.698 70.6812 141.741C70.6958 142.832 69.8592 143.7 68.8132 143.625C67.766 143.569 66.9708 142.658 67.0378 141.593ZM57.4382 140.035C57.6891 139.001 58.6511 138.365 59.5863 138.622C60.5239 138.864 61.1729 139.78 60.9988 140.852C60.8332 141.884 59.842 142.669 58.824 142.407C57.8072 142.133 57.1874 141.068 57.4382 140.035ZM48.2737 136.632C48.7048 135.656 49.7471 135.258 50.6312 135.665C51.5396 136.016 51.989 137.115 51.6383 138.115C51.2876 139.116 50.2038 139.62 49.2199 139.237C48.2591 138.795 47.8512 137.59 48.2737 136.632ZM39.8552 131.496C40.4592 130.604 41.5136 130.477 42.3563 130.981C43.1831 131.511 43.4303 132.685 42.9104 133.601C42.3916 134.516 41.2433 134.792 40.3483 134.215C39.4363 133.663 39.2841 132.338 39.8552 131.496ZM32.4696 124.813C33.1991 124.073 34.2962 124.109 35.0342 124.772C35.7502 125.459 35.7855 126.667 35.117 127.467C34.4484 128.265 33.2758 128.31 32.5013 127.562C31.7025 126.839 31.7439 125.551 32.4696 124.813ZM26.3585 116.812C27.1841 116.24 28.3153 116.445 28.9071 117.254C29.4867 118.073 29.3078 119.271 28.5126 119.927C27.7175 120.584 26.5619 120.397 25.9348 119.507C25.2943 118.626 25.4976 117.41 26.3585 116.812ZM21.7314 107.757C22.6629 107.345 23.7612 107.758 24.1813 108.678C24.6002 109.599 24.2106 110.745 23.3144 111.237C22.4193 111.727 21.3222 111.315 20.868 110.313C20.4125 109.313 20.8023 108.167 21.7314 107.757ZM18.8097 97.94C19.796 97.7182 20.7945 98.341 21.0356 99.3313C21.2755 100.322 20.6836 101.374 19.718 101.681C18.7524 101.987 17.7552 101.365 17.4934 100.289C17.2328 99.2139 17.8234 98.1605 18.8097 97.94ZM17.6478 87.7251C18.6561 87.6993 19.517 88.5064 19.5645 89.5289C19.6132 90.5501 18.8351 91.4708 17.8317 91.5829C16.8295 91.6964 15.9698 90.8892 15.9163 89.7817C15.8639 88.6728 16.6408 87.7522 17.6478 87.7251ZM18.2415 77.4611C19.2376 77.63 19.9292 78.5867 19.7818 79.5976C19.5967 80.6046 18.8113 81.3744 17.7872 81.2893C16.8009 81.2093 15.9571 80.2371 16.1519 79.1437C16.309 78.0451 17.2466 77.2922 18.2415 77.4611ZM20.591 67.4831C21.5396 67.8442 22.0425 68.9156 21.7088 69.8762C21.4531 70.8613 20.479 71.4428 19.5012 71.1643C18.5319 70.8897 17.9389 69.7885 18.2202 68.7196C18.5782 67.6752 19.6425 67.1234 20.591 67.4831ZM24.6411 58.1349C25.5288 58.6841 25.7747 59.8008 25.3461 60.7175C24.9284 61.6394 23.8496 62.0095 22.94 61.5466C22.0328 61.085 21.6626 59.8974 22.1193 58.8982C22.5868 57.9053 23.7887 57.6049 24.6411 58.1349ZM30.2474 49.7327C31.0231 50.4444 31.062 51.5804 30.5116 52.4249C29.9344 53.245 28.8044 53.3946 27.991 52.7641C27.1788 52.1322 27.0265 50.8983 27.6549 50.0099C28.2564 49.097 29.4997 49.0454 30.2474 49.7327ZM37.2094 42.5544C37.526 42.9709 37.6503 43.4763 37.604 43.9508C37.5687 44.4421 37.3811 44.9282 37.0207 45.2724C36.3059 45.961 35.1649 45.8849 34.4745 45.1061C33.784 44.3286 33.8522 43.0908 34.6279 42.3442C35.0163 41.9755 35.4937 41.7988 35.9613 41.8388C36.4423 41.893 36.894 42.1392 37.2094 42.5544ZM45.2956 36.8423C45.7547 37.7603 45.4771 38.9723 44.6503 39.501C43.8259 40.0335 42.7129 39.7318 42.1698 38.8318C41.6255 37.9344 41.9092 36.7352 42.8054 36.1589C43.7041 35.5864 44.8097 35.8752 45.2956 36.8423ZM54.2497 32.8282C54.5505 33.8481 54.0585 34.9634 53.1526 35.3154C52.2454 35.6674 51.2031 35.1465 50.8244 34.1562C50.4469 33.1673 50.9364 32.0519 51.9215 31.6703C52.9078 31.2899 53.9501 31.8095 54.2497 32.8282ZM63.748 30.6593C63.8649 31.7205 63.1854 32.7095 62.2307 32.8629C61.276 33.0177 60.3396 32.2891 60.1411 31.2421C59.9426 30.1964 60.6209 29.2075 61.6584 29.0399C62.6946 28.8722 63.6311 29.5994 63.748 30.6593ZM73.4582 30.3626C73.3912 31.4289 72.5534 32.2541 71.589 32.2013C70.6234 32.1278 69.8294 31.2587 69.8148 30.2143C69.8002 29.1235 70.6367 28.2557 71.684 28.3318C72.7312 28.3872 73.5252 29.2988 73.4582 30.3626ZM83.0576 31.9214C82.8067 32.9555 81.8436 33.5899 80.9084 33.3346C79.9708 33.0909 79.323 32.1767 79.4959 31.1039C79.6628 30.0724 80.6527 29.2872 81.6719 29.5476C82.6874 29.8236 83.3084 30.8886 83.0576 31.9214ZM92.2214 35.3245C91.7904 36.2993 90.748 36.699 89.8639 36.2903C88.9568 35.9409 88.5074 34.8423 88.8581 33.8404C89.2088 32.8399 90.2913 32.3357 91.2752 32.72C92.236 33.1622 92.6452 34.3665 92.2214 35.3245ZM100.639 40.4591C100.035 41.3513 98.9801 41.4803 98.1375 40.9761C97.3119 40.4462 97.0647 39.2703 97.5835 38.3548C98.1022 37.4406 99.2505 37.1634 100.147 37.741C101.057 38.2942 101.211 39.6171 100.639 40.4591ZM108.027 47.1435C107.298 47.8836 106.201 47.8475 105.461 47.1835C104.745 46.4962 104.711 45.2881 105.38 44.49C106.048 43.6905 107.22 43.6454 107.995 44.3932C108.793 45.1166 108.753 46.406 108.027 47.1435ZM114.138 55.1445C113.314 55.7169 112.183 55.5119 111.591 54.7022C111.011 53.8834 111.19 52.6843 111.985 52.028C112.78 51.373 113.936 51.5586 114.563 52.4483C115.202 53.329 114.999 54.5462 114.138 55.1445ZM118.763 64.2001C117.833 64.6115 116.735 64.1988 116.315 63.2782C115.895 62.3563 116.285 61.2101 117.18 60.7201C118.075 60.2301 119.173 60.6414 119.628 61.642C120.082 62.6426 119.694 63.7888 118.763 64.2001ZM121.685 74.0169C120.697 74.2387 119.699 73.6159 119.458 72.6257C119.218 71.6354 119.81 70.5819 120.777 70.2763C121.741 69.9695 122.74 70.591 123 71.6676C123.262 72.743 122.67 73.7951 121.685 74.0169ZM122.848 84.2304C121.841 84.2575 120.98 83.4503 120.931 82.4278C120.884 81.4053 121.662 80.486 122.664 80.3725C123.666 80.2603 124.526 81.0662 124.58 82.1751C124.633 83.284 123.856 84.2046 122.848 84.2304ZM112.198 94.3523C111.209 94.1473 110.518 93.1816 110.659 92.1965C110.802 91.2113 111.737 90.4945 112.74 90.5938C113.745 90.693 114.434 91.6575 114.278 92.7483C114.121 93.8392 113.187 94.5573 112.198 94.3523ZM109.402 104.031C108.936 103.816 108.611 103.435 108.434 102.995C108.236 102.545 108.192 102.037 108.356 101.566C108.678 100.629 109.721 100.143 110.678 100.479C111.635 100.813 112.124 101.925 111.765 102.961C111.586 103.476 111.234 103.861 110.814 104.058C110.374 104.246 109.861 104.244 109.402 104.031ZM104.596 112.781C103.789 112.14 103.591 110.972 104.155 110.174C104.642 109.32 105.74 109.079 106.602 109.632C107.465 110.184 107.728 111.399 107.185 112.34C106.565 113.226 105.402 113.421 104.596 112.781ZM98.1091 120.212C97.4564 119.399 97.4893 118.192 98.1871 117.521C98.897 116.865 100.027 116.899 100.738 117.624C101.477 118.381 101.471 119.615 100.688 120.345C99.9173 121.087 98.7606 121.026 98.1091 120.212ZM90.226 125.941C89.7706 125.014 90.0604 123.856 90.8568 123.321C91.6605 122.803 92.7625 123.111 93.3153 124.005C93.867 124.897 93.5942 126.088 92.704 126.661C91.8212 127.25 90.7022 126.907 90.226 125.941ZM81.3222 129.616C81.0665 128.577 81.6046 127.552 82.5094 127.284C83.3934 126.938 84.3932 127.476 84.7439 128.478C85.0934 129.478 84.5844 130.599 83.6053 130.977C82.6032 131.277 81.573 130.644 81.3222 129.616ZM71.8741 131.12C71.8437 130.052 72.5816 129.142 73.5229 129.093C74.4678 129.081 75.3214 129.77 75.4517 130.838C75.5808 131.887 74.855 132.932 73.8127 132.952C72.7728 133.009 71.9046 132.186 71.8741 131.12ZM62.3388 130.4C62.5325 129.352 63.4446 128.62 64.3749 128.771C65.3052 128.921 65.9822 129.912 65.8885 130.973C65.7947 132.037 64.8839 132.768 63.8537 132.603C62.8235 132.436 62.1452 131.447 62.3388 130.4ZM53.2006 127.436C53.4039 126.945 53.7632 126.6 54.1785 126.411C54.6047 126.202 55.0832 126.157 55.5288 126.328C56.4129 126.67 56.872 127.774 56.5554 128.789C56.24 129.801 55.1891 130.319 54.2113 129.939C53.7242 129.75 53.3613 129.378 53.175 128.933C52.9972 128.467 52.9997 127.922 53.2006 127.436ZM44.9345 122.349C45.5397 121.494 46.643 121.284 47.398 121.882C48.2029 122.398 48.4306 123.56 47.9082 124.474C47.387 125.387 46.2412 125.665 45.3511 125.09C44.5145 124.433 44.3306 123.201 44.9345 122.349ZM37.9188 115.479C38.6871 114.788 39.8269 114.824 40.4601 115.561C41.0799 116.314 41.0482 117.511 40.3627 118.263C39.6479 119.046 38.4826 119.04 37.7946 118.21C37.0932 117.395 37.1504 116.17 37.9188 115.479ZM32.5087 107.135C33.3842 106.651 34.4777 106.96 34.9843 107.802C35.4726 108.654 35.1815 109.821 34.3377 110.405C33.495 110.989 32.3699 110.701 31.8292 109.758C31.2727 108.824 31.5966 107.638 32.5087 107.135ZM29.0377 97.7041C30.0191 97.4346 30.9872 98.0033 31.2417 98.9626C31.5668 99.8974 31.059 100.957 30.1129 101.327C29.168 101.697 28.1098 101.16 27.753 100.122C27.4693 99.0618 28.0684 97.971 29.0377 97.7041ZM27.6196 87.698C28.6267 87.6658 29.4864 88.4484 29.5327 89.4451C29.5437 90.4444 28.8946 91.3496 27.8851 91.4875C26.8951 91.6229 25.9075 90.8557 25.888 89.7507C25.8345 88.6495 26.6114 87.7302 27.6196 87.698ZM28.2964 77.603C29.2864 77.808 29.9781 78.7738 29.8356 79.7601C29.6931 80.7452 28.7579 81.4622 27.7557 81.3629C26.7511 81.2636 26.0607 80.2978 26.2178 79.207C26.3736 78.1174 27.3076 77.3993 28.2964 77.603ZM31.0964 67.9254C31.5603 68.1395 31.8854 68.5198 32.0644 68.9608C32.2617 69.4108 32.3043 69.9188 32.1424 70.3908C31.8197 71.3269 30.7774 71.8117 29.8203 71.4777C28.8632 71.1425 28.3736 70.031 28.7328 68.9943C28.9106 68.4799 29.2625 68.0943 29.6826 67.8983C30.1234 67.7101 30.6373 67.7127 31.0964 67.9254ZM35.9012 59.1754C36.7085 59.8162 36.907 60.9843 36.342 61.7825C35.8549 62.6361 34.7578 62.8759 33.8944 62.3241C33.0323 61.7709 32.7693 60.5576 33.3124 59.6163C33.9334 58.7305 35.0963 58.5358 35.9012 59.1754ZM42.3871 51.7431C43.0398 52.5567 43.0056 53.7649 42.3091 54.4341C41.598 55.0904 40.468 55.0581 39.7581 54.3322C39.0177 53.5753 39.0251 52.3401 39.808 51.6115C40.5776 50.8689 41.7344 50.9308 42.3871 51.7431ZM50.2689 46.0152C50.7244 46.9423 50.4333 48.1002 49.6382 48.6353C48.8333 49.1536 47.7313 48.8455 47.1796 47.9519C46.628 47.0583 46.8996 45.8669 47.7909 45.2957C48.6726 44.7065 49.7928 45.0494 50.2689 46.0152ZM59.1734 42.3403C59.4292 43.3795 58.891 44.4046 57.985 44.6728C57.1022 45.0171 56.1011 44.4807 55.7517 43.4788C55.4022 42.4782 55.91 41.3564 56.8902 40.9799C57.8912 40.6795 58.9214 41.3126 59.1734 42.3403ZM68.6258 40.8368C68.6562 41.9044 67.9171 42.8147 66.977 42.8637C66.0321 42.874 65.1773 42.1868 65.047 41.1192C64.9192 40.0696 65.6437 39.0239 66.6872 39.0046C67.7272 38.9479 68.5954 39.7705 68.6258 40.8368ZM78.1579 41.5562C77.9643 42.6045 77.0521 43.3355 76.1206 43.186C75.1903 43.0351 74.5132 42.0449 74.607 40.9824C74.7008 39.9186 75.6128 39.1888 76.643 39.3539C77.6732 39.5202 78.3503 40.5092 78.1579 41.5562ZM87.2967 44.5207C87.0945 45.0119 86.7353 45.3562 86.3188 45.5444C85.8939 45.7533 85.4141 45.7998 84.9684 45.6283C84.0856 45.2853 83.6266 44.1829 83.942 43.1681C84.2586 42.1547 85.3082 41.6376 86.2872 42.0167C86.773 42.2062 87.1372 42.5789 87.3223 43.0237C87.5 43.4892 87.4976 44.0333 87.2967 44.5207ZM95.5589 49.6075C94.9537 50.4624 93.8505 50.6713 93.0968 50.0743C92.2907 49.5585 92.0642 48.3955 92.5854 47.4826C93.1078 46.5697 94.2536 46.2912 95.1425 46.8662C95.979 47.5225 96.1629 48.7539 95.5589 49.6075ZM102.577 56.4764C101.809 57.1675 100.668 57.1327 100.036 56.3939C99.4161 55.6421 99.4465 54.4456 100.133 53.6926C100.847 52.9099 102.013 52.9164 102.701 53.7455C103.403 54.5617 103.346 55.7866 102.577 56.4764ZM107.989 64.8219C107.113 65.3042 106.02 64.9973 105.514 64.154C105.025 63.303 105.316 62.1361 106.16 61.5507C107.004 60.9666 108.129 61.2555 108.669 62.198C109.225 63.1328 108.902 64.3191 107.989 64.8219ZM111.459 74.2525C110.479 74.522 109.51 73.9521 109.256 72.9941C108.931 72.058 109.438 70.9994 110.384 70.6281C111.329 70.258 112.388 70.797 112.744 71.8336C113.028 72.8948 112.43 73.9856 111.459 74.2525ZM112.88 84.2575C111.872 84.2897 111.013 83.5083 110.967 82.5116C110.956 81.511 111.605 80.6072 112.615 80.4692C113.605 80.3325 114.592 81.101 114.61 82.2047C114.664 83.3059 113.887 84.2252 112.88 84.2575ZM101.953 94.4943C100.963 94.2183 100.409 93.2203 100.58 92.2352C100.72 91.245 101.652 90.55 102.653 90.6828C103.653 90.8156 104.334 91.8407 104.169 92.9715C103.972 94.0959 102.911 94.7625 101.953 94.4943ZM98.1738 104.009C97.3117 103.441 97.0353 102.297 97.5005 101.426C97.9096 100.52 98.9909 100.149 99.9091 100.59C100.826 101.031 101.194 102.225 100.722 103.255C100.194 104.252 99.0213 104.572 98.1738 104.009ZM91.9128 111.925C91.2528 111.118 91.282 109.914 91.9859 109.241C92.6434 108.521 93.7576 108.479 94.5174 109.192C95.2663 109.894 95.309 111.173 94.5564 111.992C93.7589 112.763 92.5728 112.731 91.9128 111.925ZM83.7321 117.546C83.3254 116.569 83.6846 115.42 84.5382 114.986C85.393 114.556 86.4414 114.809 86.9772 115.741C87.4923 116.63 87.2061 117.92 86.232 118.416C85.259 118.915 84.1376 118.522 83.7321 117.546ZM74.3455 120.348C74.2311 119.287 74.8959 118.299 75.8311 118.149C76.7748 118.038 77.6978 118.575 77.9511 119.642C78.191 120.644 77.5639 121.822 76.4887 121.957C75.4208 122.131 74.46 121.408 74.3455 120.348ZM64.5955 120.096C64.7794 119.045 65.6877 118.313 66.6229 118.466C67.5593 118.617 68.2912 119.45 68.2389 120.54C68.1889 121.582 67.2671 122.478 66.1992 122.31C65.1301 122.14 64.4128 121.145 64.5955 120.096ZM55.3494 116.824C55.8182 115.878 56.8922 115.459 57.7434 115.897C58.5921 116.343 59.061 117.361 58.7042 118.388C58.3681 119.366 57.2332 119.939 56.2627 119.436C55.2885 118.941 54.8806 117.767 55.3494 116.824ZM47.4192 110.805C48.1303 110.048 49.2786 109.977 49.9787 110.653C50.6546 111.358 50.8153 112.48 50.1943 113.344C49.5952 114.179 48.3556 114.369 47.5775 113.572C46.7774 112.803 46.7092 111.562 47.4192 110.805ZM41.5068 102.587C42.3969 102.084 43.522 102.369 44.0127 103.225C44.2636 103.656 44.3062 104.172 44.2088 104.65C44.126 105.117 43.8727 105.567 43.4611 105.875C43.0496 106.182 42.5503 106.284 42.0706 106.187C41.6066 106.08 41.1901 105.754 40.9088 105.27C40.3475 104.293 40.6178 103.09 41.5068 102.587ZM38.1607 92.8803C39.1348 92.6831 40.1467 93.3033 40.3792 94.2742C40.6021 95.249 40.0335 96.305 39.0995 96.6351C38.1205 96.9807 37.1 96.3669 36.8419 95.2541C36.5764 94.1452 37.1548 93.0841 38.1607 92.8803ZM37.6711 82.5582C38.6732 82.673 39.4526 83.5794 39.4051 84.5813C39.3807 85.0867 39.153 85.5381 38.8048 85.8759C38.4699 86.2111 38.0389 86.4316 37.5299 86.4393C37.0306 86.4471 36.5484 86.233 36.2208 85.8668C35.9067 85.5019 35.7265 84.9836 35.7533 84.4176C35.8069 83.2752 36.6689 82.4435 37.6711 82.5582ZM40.061 72.5377C40.9864 72.9632 41.4784 74.0721 41.1533 75.0133C40.9889 75.4878 40.6443 75.8476 40.2181 76.0603C39.8211 76.2821 39.334 76.3543 38.8494 76.2047C38.366 76.0552 37.9776 75.7044 37.7511 75.2467C37.5526 74.8006 37.5246 74.2475 37.7084 73.7149C38.0798 72.6396 39.1368 72.1148 40.061 72.5377ZM45.154 63.7246C45.9017 64.4028 46.0649 65.62 45.5011 66.4245C44.93 67.2253 43.7841 67.4032 42.9585 66.8372C42.0927 66.2402 41.9222 65.0204 42.5725 64.1075C43.2179 63.1895 44.3698 63.0141 45.154 63.7246ZM52.4711 56.8906C52.7439 57.338 52.8194 57.8563 52.7317 58.3218C52.6525 58.8027 52.4309 59.2656 52.0461 59.5648C51.2887 60.1656 50.1453 59.9838 49.4974 59.1663C48.8508 58.3476 49.0237 57.1252 49.8895 56.4406C50.3193 56.104 50.821 55.9648 51.2911 56.0512C51.7709 56.1505 52.1971 56.4419 52.4711 56.8906ZM61.359 52.6378C61.6257 53.6771 61.0814 54.6674 60.2047 55.049C59.317 55.3946 58.2783 54.8698 57.8874 53.886C57.4965 52.9022 58.0006 51.7804 59.0162 51.3884C60.0208 50.9603 61.0984 51.6166 61.359 52.6378ZM71.033 51.3508C70.9989 52.4198 70.2037 53.2115 69.2575 53.3004C68.3114 53.352 67.4651 52.5255 67.3676 51.463C67.2702 50.4006 68.0641 49.4877 69.1418 49.431C70.2207 49.3381 71.0671 50.2858 71.033 51.3508ZM80.64 53.1211C80.3112 54.1243 79.3261 54.6516 78.4007 54.435C77.4838 54.1861 76.9053 53.1302 77.105 52.0832C77.3047 51.0375 78.3167 50.416 79.3639 50.7009C80.4196 50.9549 80.9712 52.1077 80.64 53.1211ZM89.3187 57.8343C88.7135 58.7098 87.6492 58.8658 86.8188 58.3784C86.009 57.8588 85.7484 56.6725 86.233 55.7364C86.7165 54.8003 87.8599 54.518 88.7829 55.1136C89.7254 55.6771 89.9056 56.9884 89.3187 57.8343ZM96.303 65.0422C95.4762 65.6946 94.4131 65.5128 93.7726 64.774C93.1346 64.0339 93.2076 62.8257 93.9309 62.0805C94.653 61.3365 95.8305 61.4164 96.5563 62.2636C97.282 63.1107 97.0945 64.4194 96.303 65.0422ZM100.975 74.102C100.017 74.4617 99.006 73.9756 98.6455 73.0498C98.2327 72.1485 98.6322 71.0203 99.5296 70.5342C100.426 70.0481 101.538 70.4878 102.004 71.5193C102.415 72.5766 101.917 73.75 100.975 74.102ZM102.905 84.2203C101.89 84.2641 101.053 83.4841 100.98 82.4848C100.833 81.4945 101.528 80.5429 102.521 80.3598C103.514 80.1767 104.454 80.9452 104.614 82.076C104.702 83.2146 103.904 84.1777 102.905 84.2203ZM91.6338 94.1876C90.6645 93.8008 90.231 92.8015 90.4136 91.8731C90.6413 90.9589 91.6264 90.3684 92.5957 90.5489C93.6125 90.741 94.2153 91.7932 93.9389 92.9008C93.7051 94.0213 92.5495 94.5576 91.6338 94.1876ZM86.6362 102.692C85.919 101.939 85.8252 100.761 86.4243 100.06C86.9564 99.2988 88.0719 99.175 88.906 99.7745C89.7401 100.374 89.8971 101.605 89.2469 102.52C88.5284 103.372 87.351 103.443 86.6362 102.692ZM78.8019 108.313C78.4464 107.341 78.8056 106.212 79.6056 105.793C80.4287 105.42 81.4419 105.679 81.9862 106.609C82.5074 107.491 82.2346 108.791 81.2434 109.253C80.2741 109.761 79.177 109.331 78.8019 108.313ZM69.4826 110.048C69.5301 108.979 70.2936 108.185 71.1862 108.1C71.6392 108.075 72.063 108.271 72.4015 108.605C72.7351 108.915 72.9847 109.357 73.0468 109.888C73.1089 110.415 72.964 110.935 72.6571 111.328C72.3503 111.696 71.8815 111.939 71.3493 111.968C70.2705 112.059 69.4351 111.112 69.4826 110.048ZM60.3036 107.642C60.7687 106.665 61.7588 106.301 62.6051 106.605C63.4453 106.922 63.8897 108.045 63.6181 109.043C63.3308 110.097 62.2848 110.597 61.2693 110.208C60.2476 109.83 59.8603 108.569 60.3036 107.642ZM52.833 101.494C53.6135 100.817 54.7387 100.832 55.3378 101.535C55.9795 102.192 56.0002 103.357 55.3451 104.178C54.7009 104.988 53.5064 105.048 52.7332 104.252C52.005 103.408 52.0525 102.169 52.833 101.494ZM48.3808 92.6504C48.8666 92.5034 49.35 92.5718 49.7482 92.7768C50.1695 92.9766 50.5056 93.3119 50.6603 93.7619C50.9343 94.6645 50.5567 95.7141 49.641 96.1847C48.7436 96.6463 47.5795 96.2118 47.2386 95.1222C47.0547 94.5923 47.0827 94.0391 47.2824 93.5943C47.5041 93.1404 47.8973 92.7961 48.3808 92.6504ZM47.7199 82.656C48.7232 82.8185 49.382 83.703 49.3735 84.652C49.3504 85.1316 49.1238 85.5571 48.7768 85.8795C48.4419 86.1992 48.0085 86.4158 47.5007 86.4274C46.4717 86.4622 45.6498 85.5649 45.7241 84.4237C45.7448 83.2788 46.7311 82.4961 47.7199 82.656ZM50.9411 73.2408C51.8044 73.8274 52.0686 74.926 51.6704 75.7706C51.2844 76.6242 50.2068 76.9839 49.2728 76.5816C48.3389 76.1806 47.9553 75.015 48.4265 73.9847C48.9136 72.9635 50.1094 72.6709 50.9411 73.2408ZM57.4927 66.0057C58.0455 66.8979 57.9188 68.088 57.2016 68.6528C56.499 69.2356 55.425 69.1647 54.7163 68.3833C54.0283 67.6264 54.0734 66.3345 54.9209 65.6279C55.7842 64.9406 56.9386 65.1147 57.4927 66.0057ZM66.2678 62.2583C66.3555 62.7843 66.2398 63.2924 66.0048 63.6843C65.7698 64.0905 65.4228 64.4257 64.9832 64.5405C64.1101 64.7429 63.1567 64.2078 62.8158 63.2073C62.4711 62.2015 63.0106 61.0475 64.0663 60.7935C64.5838 60.6568 65.0977 60.7277 65.4971 61.0011C65.9001 61.2899 66.1814 61.7335 66.2678 62.2583ZM75.7242 62.5988C75.4649 63.6471 74.5686 64.2312 73.6785 64.128C72.7969 63.9707 72.137 63.0127 72.2064 61.9721C72.2794 60.8839 73.206 60.1206 74.2727 60.3088C75.3479 60.4455 75.9763 61.5828 75.7242 62.5988ZM84.2328 66.9764C83.5947 67.8171 82.5171 68.0105 81.7804 67.4767C81.0156 66.9893 80.7855 65.8211 81.2616 64.8798C81.7377 63.9386 82.8751 63.651 83.7969 64.248C84.6883 64.8914 84.8575 66.1538 84.2328 66.9764ZM90.3384 74.633C89.4653 75.1088 88.3414 74.8626 87.8823 74.0516C87.433 73.2341 87.5828 72.1317 88.3986 71.4612C89.1731 70.8191 90.4103 70.9802 90.9619 71.9641C91.5196 72.944 91.2565 74.1302 90.3384 74.633ZM92.9365 84.2668C91.9331 84.3261 91.0977 83.6054 90.9297 82.6744C90.8591 82.2012 91.0089 81.7331 91.278 81.3437C91.5252 80.9621 91.9222 80.6513 92.4129 80.5301C92.9036 80.4089 93.3992 80.5095 93.8084 80.7893C94.1944 81.073 94.4635 81.5436 94.5463 82.1019C94.7399 83.2301 93.946 84.2062 92.9365 84.2668ZM80.4105 94.1939C79.6287 93.5247 79.423 92.3927 79.8479 91.5932C80.0549 91.1781 80.4007 90.8854 80.8452 90.7319C81.2556 90.5669 81.7524 90.5333 82.2261 90.719C82.6974 90.9034 83.0529 91.2902 83.2234 91.8008C83.3634 92.2921 83.3269 92.9123 83.0468 93.4693C82.4465 94.591 81.1959 94.8657 80.4105 94.1939ZM71.9469 99.3967C71.8397 98.3252 72.4547 97.3942 73.284 97.1312C74.112 96.8733 75.1142 97.353 75.5525 98.3007C76.0006 99.2703 75.4613 100.486 74.2947 100.852C73.1245 101.213 72.0516 100.448 71.9469 99.3967ZM62.4896 96.738C63.1216 95.9102 64.1895 95.6923 64.9445 96.1436C65.3366 96.3615 65.6131 96.729 65.758 97.1983C65.9138 97.6328 65.9455 98.1589 65.7702 98.6605C65.596 99.1608 65.2307 99.536 64.7484 99.7178C64.2845 99.8661 63.6988 99.8261 63.1728 99.5296C62.1134 98.8939 61.854 97.571 62.4896 96.738ZM57.576 87.7777C58.5878 87.663 59.467 88.3155 59.7154 89.1935C59.959 90.069 59.506 91.1315 58.611 91.5944C57.6953 92.0702 56.5483 91.499 56.2024 90.2637C55.8603 89.0233 56.5836 87.8873 57.576 87.7777ZM60.0872 77.7629C60.869 78.4321 61.0747 79.5642 60.6486 80.3624C60.4428 80.7788 60.0957 81.0702 59.6525 81.2237C59.2421 81.39 58.7454 81.4235 58.2717 81.2378C57.8004 81.0522 57.4449 80.6654 57.2732 80.156C57.1332 79.6635 57.1709 79.0433 57.451 78.4876C58.0513 77.3658 59.3006 77.0911 60.0872 77.7629ZM68.5483 72.5598C68.6567 73.63 68.0406 74.5609 67.2114 74.824C66.3845 75.0832 65.3811 74.6022 64.944 73.6558C64.4947 72.6861 65.0341 71.4702 66.2006 71.104C67.3721 70.7417 68.4448 71.5076 68.5483 72.5598ZM78.0064 75.2173C77.3744 76.0464 76.3053 76.2643 75.5515 75.813C75.1582 75.5938 74.883 75.2276 74.7381 74.757C74.581 74.3224 74.5493 73.7964 74.7247 73.2961C74.9 72.7958 75.2653 72.4193 75.7463 72.2388C76.2115 72.0905 76.7972 72.1292 77.322 72.4258C78.3826 73.0614 78.6408 74.3856 78.0064 75.2173ZM82.9208 84.1787C81.9089 84.2921 81.0297 83.641 80.7813 82.7629C80.5378 81.8861 80.9908 80.8249 81.8846 80.3607C82.8003 79.8862 83.9486 80.4574 84.2944 81.6927C84.6366 82.9318 83.9133 84.0678 82.9208 84.1787Z" fill="#242529"/>
</g>
</g>
</g>
<path fill-rule="evenodd" clip-rule="evenodd" d="M128 15H12C5.92487 15 1 19.9249 1 26V42C1 48.0751 5.92487 53 12 53H128C134.075 53 139 48.0751 139 42V26C139 19.9249 134.075 15 128 15ZM12 14C5.37258 14 0 19.3726 0 26V42C0 48.6274 5.37258 54 12 54H128C134.627 54 140 48.6274 140 42V26C140 19.3726 134.627 14 128 14H12Z" fill="#43A047"/>
<path fill-rule="evenodd" clip-rule="evenodd" d="M60.6141 61.2488L108.226 14.2431C110.591 11.9082 110.591 8.12261 108.226 5.7877L105.151 2.75118C102.786 0.417056 98.9534 0.416157 96.588 2.74918L56.3297 42.4572L43.4098 29.733C41.0439 27.403 37.2135 27.4053 34.8505 29.7382L31.7738 32.7758C29.4087 35.1107 29.4087 38.8963 31.7738 41.2312L52.0496 61.2488C54.4146 63.5837 58.2491 63.5837 60.6141 61.2488ZM105.926 9.63478C105.852 9.25799 105.667 8.89822 105.371 8.60642L102.296 5.56989C101.508 4.79185 100.23 4.79155 99.4415 5.56923L57.7575 46.6834C56.9698 47.4604 55.6935 47.4609 54.9051 46.6845L40.5585 32.5552C39.7699 31.7785 38.493 31.7793 37.7054 32.5569L34.6286 35.5945C34.2993 35.9197 34.1075 36.3292 34.0533 36.7527C34.1074 36.3292 34.2992 35.9195 34.6286 35.5943L37.7054 32.5567C38.493 31.7791 39.7699 31.7783 40.5585 32.555L54.9051 46.6843C55.6935 47.4607 56.9698 47.4602 57.7575 46.6832L99.4415 5.56899C100.23 4.79132 101.508 4.79162 102.296 5.56966L105.371 8.60618C105.667 8.89805 105.852 9.25791 105.926 9.63478Z" fill="#66BB6A"/>
</svg>
