<svg xmlns="http://www.w3.org/2000/svg" width="28" height="28" fill="none"><path fill="#fff" d="M14 16.333A1.167 1.167 0 1 0 14 14a1.167 1.167 0 0 0 0 2.333m5.833 0a1.167 1.167 0 1 0 0-2.333 1.167 1.167 0 0 0 0 2.333M14 21a1.167 1.167 0 1 0 0-2.333A1.167 1.167 0 0 0 14 21m5.833 0a1.166 1.166 0 1 0 0-2.333 1.166 1.166 0 0 0 0 2.333M8.167 16.333a1.167 1.167 0 1 0 0-2.333 1.167 1.167 0 0 0 0 2.333m14-11.666H21V3.5a1.167 1.167 0 1 0-2.333 0v1.167H9.333V3.5A1.167 1.167 0 1 0 7 3.5v1.167H5.833a3.5 3.5 0 0 0-3.5 3.5v14a3.5 3.5 0 0 0 3.5 3.5h16.334a3.5 3.5 0 0 0 3.5-3.5v-14a3.5 3.5 0 0 0-3.5-3.5m1.166 17.5a1.166 1.166 0 0 1-1.166 1.166H5.833a1.167 1.167 0 0 1-1.166-1.166v-10.5h18.666zm0-12.834H4.667V8.167A1.167 1.167 0 0 1 5.833 7h16.334a1.167 1.167 0 0 1 1.166 1.167zM8.167 21a1.167 1.167 0 1 0 0-2.333 1.167 1.167 0 0 0 0 2.333"/></svg>